<?xml version="1.0" encoding="utf-8"?>
<!-- Generator: Adobe Illustrator 23.1.0, SVG Export Plug-In . SVG Version: 6.00 Build 0)  -->
<svg version="1.1" xmlns="http://www.w3.org/2000/svg" xmlns:xlink="http://www.w3.org/1999/xlink" x="0px" y="0px"
	 viewBox="0 0 697.7 720" style="enable-background:new 0 0 697.7 720;" xml:space="preserve">
<style type="text/css">
	.st0{fill:#B2DCEC;}
	.st1{fill:#AEB5F7;}
	.st2{fill:#F9AFD0;}
	.st3{fill:#43355E;}
</style>
<g id="_x34_">
	<g>
		<path class="st0" d="M697.7,250.6c0-45.7-45.4-83.3-103.8-88.3c3.4-27.3-3.4-53.6-21.4-72.6c-28.8-30.3-77.5-33.2-120.8-10.9
			C441.7,33.9,396.5,0,342.2,0C286,0,239.6,36.3,231.9,83.5c-39.8-25.7-86.8-27.4-116.4-0.8c-22.2,20-29.5,51.5-22.7,83.9
			C40.5,172.2,0,210.4,0,256.8c0,49.1,45.3,89,102,90.9c-2.5,19.2,1.2,37.9,11.9,53.5c26.6,38.5,86.8,43.5,137.2,12.5
			c16,35.5,54.4,60.4,99.2,60.4c42.8,0,79.8-22.8,97-55.8c3.3,2.3,6.8,4.5,10.4,6.6c57.4,33.2,124.9,23.8,150.7-20.9
			c11.8-20.4,12.8-44.6,5-68C662.1,325.1,697.7,291,697.7,250.6z"/>
		<path class="st0" d="M107.1,531.4c0,15.1-10.4,25.3-23.1,25.3S60.9,546,60.9,531.3c0-22.7,20.1-49.3,23.2-49.3
			C86.7,482,107.1,506.9,107.1,531.4z"/>
		<path class="st0" d="M358.5,676c0,12.5-8.6,20.9-19.1,20.9c-10.6,0-19.1-8.8-19.1-21c0-18.7,16.6-40.8,19.2-40.8
			C341.6,635.2,358.5,655.8,358.5,676z"/>
		<path class="st0" d="M253.3,617.2c0,18.2-12.5,30.4-27.8,30.4c-15.3,0-27.8-12.9-27.7-30.5c0-27.2,24.1-59.3,27.8-59.3
			C228.8,557.9,253.3,587.8,253.3,617.2z"/>
		<path class="st0" d="M614.8,642.4c0,16.7-11.5,28-25.6,28c-14.1,0-25.5-11.8-25.5-28c0-25.1,22.2-54.5,25.6-54.5
			C592.2,587.8,614.8,615.4,614.8,642.4z"/>
	</g>
</g>
<g id="_x33_">
	<g>
		<path class="st1" d="M653.1,510.9c0.3,15.1-9.8,25.5-22.6,25.8c-12.8,0.3-23.3-10.2-23.6-24.9c-0.5-22.7,19-49.7,22.1-49.8
			C631.6,462,652.6,486.5,653.1,510.9z"/>
		<path class="st1" d="M498,684c0.2,21.3-14.3,35.8-32.3,36s-32.7-14.8-32.9-35.5c-0.3-32,27.6-69.8,32-69.8
			C468.6,614.7,497.7,649.5,498,684z"/>
		<path class="st1" d="M156,666.9c0,15.1-10.4,25.3-23.1,25.3c-12.8,0-23.1-10.7-23.1-25.4c0-22.7,20.1-49.3,23.2-49.3
			C135.6,617.5,156.1,642.4,156,666.9z"/>
	</g>
</g>
<g id="_x32_">
	<g>
		<ellipse class="st2" cx="209.3" cy="293.2" rx="40" ry="14.8"/>
		<ellipse class="st2" cx="498.1" cy="293.2" rx="40" ry="14.8"/>
		<path class="st2" d="M423.1,385.1c-14.9,0.4-50.9,7.8-58.4,44.2c-9.5-35.9-45.9-41.3-60.8-40.9c-14.9,0.4-50.7,13.1-49.2,66.3
			c1.5,53.2,114.4,128.8,114.4,128.8s108.4-81.8,106.9-135C474.5,395.3,438,384.6,423.1,385.1z"/>
	</g>
</g>
<g id="_x31_">
	<g>
		<g>
			<path class="st3" d="M247.8,166.6c-8.4,0-16,5-22,13.4l20.5,34.4l-31.3-8.5c-1.3,6.3-2.1,13.1-2.1,20.2c0,15.6,3.5,29.7,9.2,40.3
				c7.5-5.4,16.7-8.5,26.7-8.5c9.3,0,17.9,2.7,25.2,7.5c5.4-10.5,8.7-24.2,8.7-39.3C282.7,193.2,267.1,166.6,247.8,166.6z"/>
			<path class="st3" d="M460.5,166.6c-8.4,0-16,5-22,13.4l20.5,34.4l-31.3-8.5c-1.3,6.3-2.1,13.1-2.1,20.2c0,15.6,3.5,29.7,9.2,40.3
				c7.5-5.4,16.7-8.5,26.7-8.5c9.3,0,17.9,2.7,25.2,7.5c5.4-10.5,8.7-24.2,8.7-39.3C495.4,193.2,479.8,166.6,460.5,166.6z"/>
		</g>
		<path class="st3" d="M449.3,320c-1.1-3.3-4.1-4.9-7.4-4.2c-0.1,0-0.8,0.1-1.1,0.2c0,0,0,0-0.1,0c-0.8,0.1-1.6,0.1-2.3,0.1
			c-0.4,0-0.8,0-1.2-0.1c0,0,0,0,0,0c-0.4-0.2-1.6-0.3-2-0.4c-0.8-0.2-1.5-0.4-2.3-0.7c-0.3-0.1-0.6-0.2-0.9-0.3c0,0,0,0,0,0
			c0,0,0,0,0,0c-1.4-0.7-2.8-1.4-4.1-2.3c-0.3-0.2-0.8-0.4-1-0.7c0.2,0.2,0.4,0.3,0.6,0.5c-0.2-0.2-0.4-0.3-0.6-0.5
			c-0.5-0.5-1.1-1-1.6-1.5c-0.5-0.5-1-1-1.5-1.6c-0.2-0.2-0.3-0.3-0.3-0.4c-0.2-0.2-0.3-0.5-0.4-0.6c-0.4-0.7-0.8-1.3-1.2-2
			c-0.2-0.3-0.4-0.7-0.5-1c0,0,0,0,0-0.1c-0.5-1.5-1-2.9-1.2-4.5c-0.5-3.1-4.5-5.1-7.4-4.2c-3.4,1.1-4.8,4.1-4.2,7.4
			c0.8,5,3.2,9.6,6.4,13.4c-4.9,9.4-10.9,18-19.9,24c-7.9,5.3-16.7,8.9-26,10.7c-17.5,3.4-36.4-0.1-51.8-9.6
			c-9-5.6-16.5-13.2-21.9-22.2c-0.1-0.1-0.2-0.2-0.2-0.3c2.8-5.6,4.2-11.9,3.7-18.1c-0.3-3.1-2.6-6.2-6-6c-3,0.1-6.3,2.7-6,6
			c0.1,1.8,0.1,3.7-0.1,5.5c0,0.2-0.1,0.3-0.1,0.5c-0.1,0.4-0.2,0.8-0.3,1.2c-0.2,1-0.5,1.9-0.8,2.8c-0.1,0.3-0.2,0.6-0.4,1
			c0,0.1-0.2,0.5-0.3,0.8c-0.4,0.8-0.8,1.6-1.3,2.4c-0.4,0.6-0.8,1.2-1.2,1.8c0,0-0.5,0.7-0.6,0.8c-0.3,0.4-0.7,0.7-1,1.1
			c-0.6,0.7-1.3,1.3-2,1.9c-0.1,0.1-0.3,0.2-0.4,0.4c-0.3,0.2-0.6,0.4-0.9,0.6c-0.8,0.6-1.7,1.1-2.5,1.5c-0.4,0.2-0.9,0.4-1.3,0.7
			c-0.1,0.1-0.2,0.1-0.2,0.1c-0.1,0-0.1,0-0.1,0c-1.7,0.6-3.4,1.2-5.2,1.5c-0.2,0-0.5,0.1-0.7,0.1c-0.5,0.1-0.3,0.1,0.4,0
			c-0.3,0.1-1.1,0.1-1.5,0.1c-1,0.1-2,0.1-3,0c-3.2-0.1-6.2,2.9-6,6c0.2,3.4,2.6,5.9,6,6c8.7,0.3,17.5-2.9,24.1-8.6
			c24,35.1,74.6,45.8,111.1,23.4c11.4-7,19.7-16.8,26-28.4c6.3,3.4,13.6,4.6,20.7,3.2C448.2,326.8,450.3,323,449.3,320z"/>
		<path class="st3" d="M554.7,386.1c-1.4-4-5.4-6.7-9.7-5.5c-3.9,1.1-6.9,5.7-5.5,9.7c0.9,2.6,1.7,5.2,2.4,7.9
			c0.3,1.2,0.6,2.5,0.8,3.8c0.1,0.5,0.2,1,0.3,1.5c0,0.2,0.3,1.9,0.3,2.2c0.7,5.4,0.8,10.9,0.6,16.4c-0.1,2.8-0.4,5.7-0.7,8.5
			c0,0.2,0,0.3,0,0.4c0,0.1,0,0.2-0.1,0.4c-0.1,0.7-0.2,1.3-0.3,2c-0.3,1.6-0.6,3.2-0.9,4.8c-1.2,5.6-2.8,11.2-4.8,16.6
			c-0.2,0.6-0.5,1.2-0.7,1.8c-0.1,0.2-0.3,0.7-0.4,0.9c-0.5,1.1-1,2.2-1.5,3.3c-1.2,2.5-2.5,5-3.9,7.3c-3.2,5.3-5.7,8.6-9.9,13
			c-1.8,1.9-3.8,3.8-5.8,5.6c-2.6,2.2-3.2,2.7-5.9,4.6c-2.3,1.5-4.6,2.9-7,4.2c-1.1,0.6-2.3,1.2-3.5,1.7c-0.5,0.2-0.9,0.4-1.4,0.6
			c0,0-1.5,0.6-1.7,0.7c-2.9,1.1-5.8,2-8.8,2.7c-1.5,0.4-3,0.7-4.5,0.9c-0.5,0.1-0.9,0.2-1.4,0.2c-0.2,0-1.6,0.2-1.8,0.2
			c-3.1,0.3-6.1,0.3-9.2,0.2c-1.6-0.1-3.1-0.2-4.6-0.4c-0.1,0-0.2,0-0.3,0c-0.1,0-0.2,0-0.4-0.1c-1-0.2-2.1-0.4-3.1-0.6
			c-0.1,0-0.3,0-0.4,0c-0.5-0.5-1-1-1.6-1.4c-9.4-6.5-18.9-12.9-28.3-19.4c-3.4-2.3-8.9-0.7-10.8,2.8c-2.1,4-0.8,8.3,2.8,10.8
			c4.4,3,8.8,6,13.2,9c-1,0.1-2.1,0.1-3.1,0.1c-3,0.1-6,0-9.1-0.2c-1.4-0.1-2.9-0.3-4.3-0.4c-0.2,0-0.3,0-0.4,0
			c-0.1,0-0.2,0-0.4-0.1c-1-0.2-1.9-0.3-2.9-0.5c-4-0.7-8.7,1.1-9.7,5.5c-0.9,3.8,1.2,8.9,5.5,9.7c8.4,1.5,16.8,2,25.2,1.5
			c-1.6,1.5-3.2,2.9-4.9,4.3c-2.5,1.9-5.1,3.6-7.8,5c-3.6,2-5.1,7.3-2.8,10.8c2.4,3.7,6.9,4.9,10.8,2.8
			c10.8-5.9,19.8-14.6,26.5-24.8c25.1,4.4,50.2-3.8,68.8-21c19.2-17.6,29-42.9,31.4-68.4C560.5,413.9,559.4,399.3,554.7,386.1z"/>
		<path class="st3" d="M335.9,502.5c-1.4-4.3-5.3-6.4-9.7-5.5c-7.7,1.6-13.8,2.3-21.8,2.7c-1.2,0.1-2.4,0.1-3.5,0.1
			c4.7-2.9,9.5-5.8,14.2-8.8c3.5-2.2,5.2-7.1,2.8-10.8c-2.3-3.5-7-5.1-10.8-2.8c-11.3,6.9-22.5,13.9-33.8,20.8
			c-0.9,0.5-1.6,1.2-2.2,2.1c-1.7-0.1-3.3-0.2-5-0.4c-0.5-0.1-1.1-0.1-1.6-0.2c-0.3,0-0.4,0-0.6-0.1c-0.1,0-0.3-0.1-0.6-0.1
			c-1.6-0.3-3.2-0.5-4.8-0.8c-5.7-1.1-11.3-2.6-16.7-4.6c-1.2-0.4-2.4-0.9-3.6-1.4c-0.1-0.1-0.3-0.1-0.4-0.1c-0.1,0-0.1-0.1-0.2-0.1
			c-0.6-0.3-1.2-0.5-1.8-0.8c-2.7-1.2-5.3-2.5-7.8-4c-2.3-1.3-4.5-2.7-6.7-4.1c-1-0.7-2.1-1.4-3.1-2.1c-0.5-0.4-1-0.7-1.5-1.1
			c-0.1-0.1-0.9-0.7-1.1-0.8c-4.2-3.4-8.1-7.1-11.6-11.1c-0.8-0.9-1.6-1.8-2.3-2.8c-0.1-0.1-0.7-0.9-0.9-1.1
			c-0.2-0.2-0.4-0.5-0.6-0.7c-1.6-2.2-3.2-4.5-4.6-6.9c-6-9.9-9.3-21.2-9.6-32.5c-0.2-7.3,0.4-12.3,2.2-19.1c1.9-7.4,4.3-13,8-19.5
			c2.1-3.7,0.9-8.6-2.8-10.8c-3.7-2.1-8.6-0.9-10.8,2.8c-14.4,24.9-16.5,55.5-3.6,81.5c10.9,22,31.1,38.4,53.5,47.8
			c13.5,5.6,28,8.4,42.6,8.9c0.2,0,0.5,0,0.7-0.1c9.3,9.8,21.1,16.8,33.8,21.3c3.9,1.4,8.8-1.6,9.7-5.5c1-4.4-1.3-8.2-5.5-9.7
			c-1.3-0.5-2.9-0.9-4.1-1.5c0.4,0.2,0.7,0.3,0,0c-0.3-0.1-0.6-0.3-1-0.4c-0.7-0.3-1.4-0.7-2.2-1c-2.3-1.1-4.6-2.4-6.8-3.8
			c10.2-0.2,20.4-1.3,30.5-3.4C334.4,511.3,337.1,506.3,335.9,502.5z"/>
	</g>
</g>
</svg>
