<?xml version="1.0" encoding="UTF-8" standalone="no"?>
<svg
   xmlns:dc="http://purl.org/dc/elements/1.1/"
   xmlns:cc="http://creativecommons.org/ns#"
   xmlns:rdf="http://www.w3.org/1999/02/22-rdf-syntax-ns#"
   xmlns:svg="http://www.w3.org/2000/svg"
   xmlns="http://www.w3.org/2000/svg"
   id="svg19051"
   version="1.1"
   viewBox="0 0 210 297"
   height="297mm"
   width="210mm">
  <defs
     id="defs19045" />
  <metadata
     id="metadata19048">
    <rdf:RDF>
      <cc:Work
         rdf:about="">
        <dc:format>image/svg+xml</dc:format>
        <dc:type
           rdf:resource="http://purl.org/dc/dcmitype/StillImage" />
        <dc:title></dc:title>
      </cc:Work>
    </rdf:RDF>
  </metadata>
  <g
     id="layer1">
    <g
       transform="matrix(0.72906167,0,0,0.72906167,262.45003,-123.92047)"
       id="g19015">
      <path
         style="opacity:1;fill:#cccccc;fill-opacity:1;stroke:none;stroke-width:0.21390069"
         d="m -169.79842,179.88294 -5.3e-4,0.001 c -4.11175,-0.0499 -8.31983,1.98731 -12.63643,5.01364 -4.31661,3.02632 -8.73053,7.14833 -12.87932,11.74399 -8.29758,9.19131 -15.51678,20.13665 -18.14618,28.43185 -1.99731,6.30105 -3.21706,13.66977 -4.06849,20.54294 -0.73019,-0.0426 -1.45819,-0.12312 -2.18953,-0.13074 a 2.3642459,2.3642459 0 0 0 -0.0372,0 c -0.6005,0.003 -1.19841,0.0652 -1.79834,0.092 -0.31198,-6.55036 -0.92358,-13.47369 -2.30322,-19.51561 -1.90888,-8.3597 -3.50034,-14.99413 -6.17533,-20.25612 -2.675,-5.26199 -6.66047,-9.1068 -12.59769,-11.11302 -8.16663,-2.75957 -17.22965,-1.1589 -25.39844,2.58589 -8.16881,3.74478 -15.53291,9.66085 -20.47679,16.13855 a 2.3642459,2.3642459 0 0 0 -0.12713,0.18138 c -5.57196,8.92088 -7.92925,14.40099 -7.984,18.59008 -0.0274,2.09455 0.77682,4.07531 2.26342,5.18573 1.48661,1.11042 3.22877,1.32843 4.89841,1.27538 3.33927,-0.10609 6.90441,-1.35237 9.83816,-2.40657 1.46687,-0.52712 2.76465,-1.01753 3.64836,-1.30638 0.0288,-0.009 0.0305,-0.007 0.0584,-0.0155 5.18812,6.06924 11.70204,18.42418 18.61334,30.01936 -5.8734,8.11309 -9.25139,18.08844 -9.32812,28.1771 l -38.92217,-24.57887 -0.87695,0.53536 39.83736,25.24396 c 0.007,0.13255 0.012,0.26521 0.0207,0.3979 a 2.3642459,2.3642459 0 0 0 0.11679,0.586 2.3642459,2.3642459 0 0 0 -0.0543,0.6036 c 0.059,1.39909 0.22005,2.79106 0.39842,4.17957 -0.59689,0.76954 -1.19982,1.53601 -1.70119,2.37093 a 2.3642459,2.3642459 0 0 0 -0.22066,0.49609 2.3642459,2.3642459 0 0 0 -0.14004,0.16018 l -34.99683,-8.44907 -0.52451,0.8206 34.99889,8.52403 c -1.61971,3.16558 -2.54318,6.68573 -2.68149,10.23916 a 2.3642459,2.3642459 0 0 0 0.03,0.46924 l -45.3812,8.13697 -0.28629,0.987 45.61478,-8.10492 c 0.12084,5.39223 2.09022,10.7198 5.46892,14.92003 -0.68049,1.7154 -0.98119,3.58799 -0.83457,5.43325 -2.07981,2.08611 -3.2471,5.04145 -3.21324,7.9592 -5.63652,6.58442 -9.89067,14.61341 -12.47831,23.27042 -1.14085,-2.92481 -2.10884,-6.21361 -3.1998,-9.37565 -1.80836,-5.24129 -4.04633,-10.42643 -9.03305,-12.52172 -2.98927,-1.25603 -6.44864,-1.94786 -9.9198,-1.67587 -3.47105,0.27199 -6.98001,1.55019 -9.77925,4.23643 a 1.9274989,1.9274989 0 0 0 -0.004,0.004 c -0.96808,0.93369 -1.74514,2.02446 -2.42362,3.1755 -5.15165,-1.40528 -10.54,-0.43934 -14.06839,3.05875 -3.72898,3.69689 -4.92192,9.46152 -3.28301,14.99235 -0.63665,0.44 -1.30894,0.83097 -1.8712,1.36683 a 1.9274989,1.9274989 0 0 0 -0.004,0.004 c -5.12752,4.92061 -6.13569,8.99914 -5.9123,13.65033 0.15314,3.18836 1.50957,5.85229 3.44372,7.92765 1.93415,2.0754 4.40886,3.64117 7.02541,5.04106 5.23309,2.79974 11.11156,5.02393 14.6637,8.07651 12.45269,10.70131 22.18308,19.57462 36.27117,33.28064 1.14237,1.18576 2.35811,2.2951 3.63699,3.31867 0.74917,0.77769 1.61491,1.44769 2.60036,1.90376 1.61531,1.0804 3.28137,2.01792 4.9723,2.80603 -9.75921,-12.05325 -15.68878,-31.94034 -8.31628,-62.86851 2.67926,-11.23969 6.85373,-22.04628 11.94294,-31.59189 0.93754,0.68117 1.98215,1.21449 3.08973,1.55549 2.65111,0.81624 5.62103,0.53559 8.07289,-0.76174 a 2.3852094,2.3852094 0 0 0 0.002,0 c 2.99795,-1.59107 4.9999,-4.73453 5.44049,-8.08942 2.18777,-1.39962 3.85807,-3.51941 4.7253,-5.96707 0.53022,-0.18037 1.08671,-0.28853 1.58181,-0.55036 2.45181,-1.29704 4.35445,-3.59587 5.17126,-6.24665 0.8168,-2.65076 0.53692,-5.62184 -0.75964,-8.07392 -0.48322,-0.91379 -1.11359,-1.73459 -1.84898,-2.44997 4.77084,-3.14764 9.59398,-4.99237 14.24357,-5.20538 0.35729,-0.0161 0.71354,-0.023 1.06867,-0.0201 v -0.003 c 2.48595,0.0212 4.91667,0.52142 7.25692,1.55081 2.45756,1.08103 4.74193,2.39516 6.86522,3.90726 -0.29754,0.29117 -0.57999,0.59766 -0.84026,0.92294 -1.73296,2.16599 -2.56276,5.03169 -2.25671,7.78868 a 2.3852094,2.3852094 0 0 0 -5.3e-4,0.003 c 0.37872,3.3728 2.56721,6.38895 5.52576,8.03103 0.4982,2.54894 1.85623,4.88154 3.81424,6.5872 -0.027,0.55941 -0.13095,1.11612 -0.0692,1.67277 0.30579,2.75686 1.74543,5.37163 3.91087,7.10499 2.16544,1.73337 5.03126,2.56405 7.78816,2.25878 1.09659,-0.12145 2.15691,-0.43657 3.14657,-0.90588 4.57279,16.0156 5.13074,33.09821 3.93361,43.83555 -2.48116,22.25509 -8.14962,36.75507 -14.98254,46.1884 -2.7e-4,0 -8e-4,0 -0.001,0.003 0.84803,-0.21299 1.65924,-0.5674 2.41536,-1.00976 1.4802,-0.60941 2.931,-1.29791 4.3279,-2.09134 l -0.0548,0.031 c 17.41883,-9.14162 29.27564,-14.88385 44.26551,-21.6054 4.28285,-1.9204 10.55406,-2.38136 16.36335,-3.57653 2.90464,-0.59756 5.71929,-1.3934 8.15815,-2.8298 2.43887,-1.4364 4.48642,-3.59669 5.53713,-6.60167 1.53556,-4.39164 1.73199,-8.56792 -1.78128,-14.73811 a 1.8920143,1.8920143 0 0 0 -0.004,-0.007 c -0.38947,-0.67857 -0.9247,-1.2505 -1.41438,-1.85724 3.15,-4.83042 3.64528,-10.69446 1.12499,-15.29313 -2.38519,-4.35218 -7.2759,-6.80889 -12.61473,-6.91793 -0.32203,-1.30124 -0.75728,-2.57357 -1.42214,-3.74808 a 1.8920143,1.8920143 0 0 0 -0.002,-0.004 c -3.08269,-5.41382 -8.77404,-7.77777 -14.23324,-8.12665 l -32.75097,-21.17442 a 2.3642459,2.3642459 0 0 0 0.0274,-0.0346 c 2.51618,-3.33701 4.16013,-7.326 4.72477,-11.46702 a 2.3642459,2.3642459 0 0 0 0.001,-0.014 l 30.25604,4.80901 -0.16692,-0.95911 -29.96923,-4.82502 a 2.3642459,2.3642459 0 0 0 0.0119,-0.0967 c 0.073,-0.73609 0.11314,-1.47515 0.11938,-2.21485 a 2.3642459,2.3642459 0 0 0 0,-0.0315 c -0.007,-1.59316 -0.26704,-3.1709 -0.5824,-4.73252 0.26706,-0.53547 0.53624,-1.06958 0.78342,-1.61489 a 2.3642459,2.3642459 0 0 0 0.16795,-0.53745 2.3642459,2.3642459 0 0 0 0.37517,-0.58393 c 0.0927,-0.20561 0.17998,-0.4137 0.26975,-0.62064 l 41.71425,-7.08742 -0.60203,-0.83251 -40.66057,6.84247 c 2.33837,-5.77069 3.56948,-12.0078 3.58686,-18.25315 a 2.3642459,2.3642459 0 0 0 0,-0.01 c -0.0198,-9.74646 -3.13452,-19.39772 -8.59947,-27.38644 5.98318,-7.08102 12.62889,-15.53277 16.40261,-22.77742 4.15244,-7.97169 6.55756,-21.95971 6.8492,-34.83405 0.14581,-6.43717 -0.26179,-12.54799 -1.43144,-17.48421 -1.16965,-4.93622 -3.02451,-9.09344 -6.93963,-10.5177 -1.03343,-0.37594 -2.12202,-0.55511 -3.22047,-0.56844 z m -13.73559,156.61059 31.58877,20.35276 c -0.71547,0.0111 -1.42205,0.0529 -2.1115,0.12869 -5.35886,0.58862 -8.97024,4.91088 -12.19306,9.41956 -3.22281,4.50871 -6.22322,9.46148 -9.66246,12.30106 -0.30478,0.25165 -0.60772,0.49549 -0.91053,0.73898 -1.08594,-9.70698 -4.23864,-19.12011 -9.10074,-27.23504 1.37988,-1.6882 2.27371,-3.7664 2.40554,-5.94794 a 2.3852093,2.3852093 0 0 0 5.3e-4,-0.003 c 0.036,-0.60238 0.0214,-1.20791 -0.0455,-1.80764 -0.21316,-1.89968 -1.08269,-3.64495 -2.23966,-5.16559 0.0435,-0.16558 0.0842,-0.33187 0.12248,-0.49866 0.74448,-0.69318 1.44667,-1.43216 2.09651,-2.21641 a 2.3642459,2.3642459 0 0 0 0.0496,-0.0672 z"
         id="path18909" />
      <path
         style="opacity:1;fill:#f9f9f9;fill-opacity:1;stroke:none;stroke-width:0.29729015"
         d="m -244.69307,339.65459 c -0.0523,0.11922 -0.10717,0.23717 -0.1633,0.35449 0.0562,-0.11735 0.11101,-0.23522 0.1633,-0.35449 z m -0.18345,0.3979 c -0.0532,0.11004 -0.10831,0.21884 -0.16485,0.32711 0.0565,-0.10824 0.11164,-0.21707 0.16485,-0.32711 z m -0.20981,0.41238 c -0.0536,0.10062 -0.10891,0.20074 -0.16536,0.29972 0.0565,-0.0991 0.11167,-0.19899 0.16536,-0.29972 z m -0.22324,0.39894 c -0.0545,0.0934 -0.10941,0.18619 -0.1664,0.27803 0.057,-0.0917 0.11195,-0.18474 0.1664,-0.27803 z m -0.23151,0.38034 c -0.0601,0.0947 -0.12021,0.18926 -0.18294,0.28215 0.0628,-0.0928 0.12283,-0.18753 0.18294,-0.28215 z m -0.22376,0.34055 c -0.0693,0.10133 -0.13946,0.20216 -0.21187,0.30128 0.0724,-0.0991 0.14253,-0.2 0.21187,-0.30128 z m -0.47284,0.64492 c -0.0448,0.0569 -0.0916,0.11192 -0.13746,0.16795 0.0459,-0.056 0.0926,-0.11112 0.13746,-0.16795 z m -0.2899,0.35295 c -0.0467,0.0548 -0.0954,0.10785 -0.14315,0.16174 0.0477,-0.0539 0.0964,-0.107 0.14315,-0.16174 z m -0.30283,0.34055 c -0.0491,0.0532 -0.0993,0.1053 -0.14934,0.15761 0.0501,-0.0523 0.10026,-0.10443 0.14934,-0.15761 z m -0.32091,0.33382 c -0.052,0.0521 -0.10467,0.10343 -0.15761,0.15452 0.053,-0.0511 0.10561,-0.10245 0.15761,-0.15452 z m -0.33641,0.32351 c -0.0466,0.0431 -0.0938,0.0858 -0.14108,0.12814 0.0474,-0.0424 0.0944,-0.085 0.14108,-0.12814 z m -0.37569,0.33226 c -0.0356,0.0302 -0.071,0.0606 -0.10697,0.0904 0.036,-0.0298 0.0713,-0.0602 0.10697,-0.0904 z m -0.37104,0.30231 c -0.0339,0.0265 -0.0676,0.053 -0.1018,0.0791 0.0342,-0.0259 0.0679,-0.0527 0.1018,-0.0791 z m -0.41444,0.30851 c -0.0204,0.0145 -0.04,0.0296 -0.0605,0.0439 0.0204,-0.0143 0.0401,-0.0295 0.0605,-0.0439 z m 44.00713,1.76062 c -0.001,0.0361 -0.003,0.0724 -0.003,0.10853 8e-5,-0.0362 0.002,-0.0724 0.003,-0.10853 z m -0.002,0.17364 c 10e-4,0.10748 0.006,0.21498 0.0176,0.32245 -0.0119,-0.10753 -0.0161,-0.2149 -0.0176,-0.32245 z m -64.79707,0.71882 a 52.160709,59.342257 0 0 0 -11.51661,23.48124 c 0.33583,0.64244 0.68841,1.25278 1.0666,1.81489 1.26366,1.87819 2.53383,3.61124 3.81992,5.25859 2.62383,-9.07886 6.18338,-17.76656 10.36164,-25.60362 -1.30637,-0.94928 -2.40307,-2.18848 -3.15846,-3.6158 a 2.3852094,2.3852094 0 0 1 -5.3e-4,-0.003 c -0.22788,-0.43145 -0.41669,-0.87733 -0.57258,-1.33273 z m 5.14335,5.81874 c 0.0356,0.0183 0.0711,0.0369 0.10697,0.0548 -0.0359,-0.018 -0.0713,-0.0365 -0.10697,-0.0548 z m 0.38809,0.18966 c 0.0518,0.0241 0.10385,0.0476 0.15607,0.0708 -0.0523,-0.023 -0.10421,-0.0468 -0.15607,-0.0708 z m 0.41186,0.18087 c 0.0743,0.0306 0.14929,0.059 0.22428,0.0879 -0.075,-0.0288 -0.15001,-0.0573 -0.22428,-0.0879 z m 0.43615,0.16848 c 0.10751,0.0386 0.21623,0.074 0.32505,0.10904 -0.10878,-0.0349 -0.21754,-0.0705 -0.32505,-0.10904 z m 75.41865,0.36381 c -0.74794,0.59695 -1.57064,1.09659 -2.44377,1.4774 0.10243,-0.0446 0.20492,-0.0896 0.30592,-0.13745 2.94633,10.31917 4.22429,21.07859 4.44159,30.30098 2.12135,-1.3663 4.2261,-2.81056 6.36137,-4.42452 a 52.160709,59.342257 0 0 0 -8.66511,-27.21641 z m -2.50114,1.50325 c -0.19531,0.0838 -0.39366,0.16005 -0.59376,0.23151 0.20012,-0.0715 0.39841,-0.14777 0.59376,-0.23151 z m -0.73328,0.28165 c -0.0396,0.0135 -0.0796,0.0262 -0.11938,0.0393 0.0398,-0.013 0.0797,-0.0257 0.11938,-0.0393 z m -0.38138,0.12092 c -0.0384,0.0114 -0.0767,0.0227 -0.11524,0.0336 0.0385,-0.0109 0.0769,-0.0222 0.11524,-0.0336 z m -0.39222,0.10747 c -0.0339,0.008 -0.0678,0.0172 -0.1018,0.0254 0.034,-0.008 0.0679,-0.0167 0.1018,-0.0254 z m -0.3638,0.0842 c -0.0479,0.0101 -0.0956,0.0206 -0.14366,0.03 0.048,-0.009 0.0958,-0.0198 0.14366,-0.03 z"
         id="path18901" />
      <path
         style="opacity:1;fill:#f2f2f2;fill-opacity:1;stroke:none;stroke-width:0.21390069"
         d="m -303.28329,345.6165 c -3.51145,0.0351 -7.01641,1.11895 -9.7653,3.75687 -1.18395,1.14189 -2.13803,2.49721 -2.80603,3.98579 -4.99604,-1.90945 -10.38888,-1.01944 -13.66686,2.23035 -3.46087,3.43112 -4.5953,9.10553 -2.47944,14.40845 -0.98027,0.53713 -1.88929,1.20237 -2.70164,1.97662 -4.88686,4.68966 -5.53245,7.74607 -5.32009,12.16771 0.52265,10.88141 16.52533,12.85422 24.46155,19.67426 12.48199,10.7265 22.25982,19.64438 36.37918,33.38142 1.12043,1.16509 2.31574,2.25345 3.57291,3.25252 0.65236,0.69593 1.48283,1.31868 2.24172,1.64436 0.45955,0.31017 0.92436,0.60407 1.39165,0.88934 -8.11548,-12.28069 -12.35648,-31.24057 -5.67614,-59.26513 0.29423,-1.23431 0.60995,-2.46226 0.93948,-3.68504 -1.60874,-2.00517 -3.19578,-4.13189 -4.77853,-6.48435 -5.54694,-8.2446 -5.7612,-22.91392 -13.93971,-26.35033 -2.38666,-1.00282 -5.12163,-1.61015 -7.85275,-1.58284 z"
         id="path18887" />
      <path
         style="fill:#f9f9f9;stroke:none;stroke-width:0.82537693;stroke-linecap:butt;stroke-linejoin:miter;stroke-miterlimit:4;stroke-dasharray:none;stroke-opacity:1"
         d="m -169.82736,182.24765 c -12.9577,-0.15735 -36.53398,28.25047 -41.38042,43.53998 -2.127,6.7102 -3.45987,14.94305 -4.29379,22.31233 a 44.520453,45.606319 0 0 0 -4.24212,-0.25011 44.520453,45.606319 0 0 0 -4.01422,0.20567 c -0.25471,-7.12183 -0.91499,-14.94932 -2.40348,-21.46794 -3.80859,-16.67921 -6.39544,-25.99505 -17.2253,-29.65452 -14.78068,-4.9945 -33.89334,5.6717 -43.23974,17.91777 -21.93921,35.12529 10.27898,16.18859 11.75071,17.53846 5.9941,6.49785 12.91673,20.27921 20.34811,32.61197 a 44.520453,45.606319 0 0 0 -9.73687,28.45509 44.520453,45.606319 0 0 0 0.0573,1.10744 l 18.53376,11.70369 -0.0961,0.0201 0.0196,0.0124 -1.44591,0.30644 -16.94108,-10.73526 a 44.520453,45.606319 0 0 0 0.46457,4.86482 22.193446,22.193446 0 0 0 -2.10633,2.93677 l 16.11116,3.88969 -0.0155,0.0124 -1.00149,0.81854 -15.63832,-3.80855 a 22.193446,22.193446 0 0 0 -2.68356,9.7131 l 21.89582,-3.92587 -0.0331,0.0465 0.0884,-0.0161 -0.87333,1.22007 -21.11189,3.75118 a 22.193446,22.193446 0 0 0 4.33359,12.96821 c 1.00219,-1.48952 2.33598,-2.74624 3.94136,-3.59719 a 2.3852093,2.3852093 0 0 1 0.006,-0.003 c 1.26041,-0.66474 2.65383,-1.00946 4.06848,-1.17925 0.98938,-1.63465 2.2936,-3.08409 3.98219,-3.98012 0.53323,-0.28255 1.09151,-0.51864 1.66502,-0.70641 a 2.3852093,2.3852093 0 0 1 0.002,0 c 3.7182,-1.21471 8.02571,-0.0399 10.80864,2.66702 4.77085,-3.14761 9.59399,-4.99234 14.24358,-5.20536 0.35729,-0.0164 0.71353,-0.023 1.06867,-0.0201 2.48595,0.0212 4.91667,0.52142 7.25692,1.55081 2.45756,1.08103 4.74192,2.39516 6.86521,3.90726 1.68365,-1.64743 3.92195,-2.72815 6.26474,-2.98845 a 2.3852093,2.3852093 0 0 1 0.002,0 c 1.96709,-0.2169 3.92561,0.21424 5.6596,1.10898 -0.0234,-0.0119 -0.0458,-0.0259 -0.0693,-0.0377 l 18.56166,2.98844 a 22.193446,22.193446 0 0 0 0.10542,-1.95336 22.193446,22.193446 0 0 0 -0.63717,-5.17282 44.520453,45.606319 0 0 0 1.04903,-2.16315 l -23.73085,4.03177 -0.30438,-0.21082 -0.41289,0.0703 -1.21543,-0.84076 26.30692,-4.42714 a 44.520453,45.606319 0 0 0 3.99666,-18.72443 44.520453,45.606319 0 0 0 -9.12451,-27.56835 c 6.19452,-7.25308 13.38421,-16.37664 17.19482,-23.69209 7.55551,-14.50477 10.07438,-55.77381 -0.23307,-59.5235 -0.76075,-0.27674 -1.57734,-0.41429 -2.44119,-0.42478 z m -26.92858,139.06282 c 1.28263,1.0858 2.32926,2.4571 3.00188,4.00132 3.89561,1.19152 7.11789,4.44518 8.10183,8.37726 l 0.87747,0.5674 a 22.193446,22.193446 0 0 0 4.27002,-10.36317 z m -14.42548,0.85886 c -0.0246,0.0266 -0.0496,0.0528 -0.0739,0.0796 0.0242,-0.0269 0.0494,-0.0529 0.0739,-0.0796 z m -28.33574,0.1478 c 0.025,0.0299 0.0508,0.0592 0.0754,0.0894 -0.0247,-0.0302 -0.0504,-0.0595 -0.0754,-0.0894 z m 0.21756,0.26977 c 0.0407,0.0523 0.0818,0.10443 0.12144,0.15761 -0.0397,-0.0532 -0.0806,-0.10533 -0.12144,-0.15761 z m 0.25373,0.33951 c 0.0408,0.0574 0.0808,0.11533 0.12041,0.17362 -0.0396,-0.0582 -0.0796,-0.11631 -0.12041,-0.17362 z m 0.22686,0.33279 c 0.0543,0.0835 0.10741,0.16791 0.15916,0.25321 -0.0518,-0.0853 -0.10474,-0.16968 -0.15916,-0.25321 z m 0.22117,0.35552 c 0.0735,0.12465 0.14507,0.25051 0.21291,0.37881 -0.0678,-0.12824 -0.13941,-0.25427 -0.21291,-0.37881 z m 0.9617,8.48477 c -0.0535,0.17161 -0.11216,0.34163 -0.17466,0.51004 0.0625,-0.16854 0.12112,-0.33833 0.17466,-0.51004 z m -0.24856,0.69866 c -0.0488,0.1239 -0.0989,0.24704 -0.15245,0.36896 0.0534,-0.12189 0.10372,-0.24508 0.15245,-0.36896 z m -0.231,0.54157 c -0.0578,0.12547 -0.1176,0.25001 -0.18035,0.37309 0.0627,-0.12313 0.12259,-0.24759 0.18035,-0.37309 z m -0.25838,0.52504 c -0.0793,0.14962 -0.16217,0.29766 -0.24856,0.44336 0.0863,-0.14583 0.1693,-0.29358 0.24856,-0.44336 z m -0.99994,1.54977 c -0.11699,0.15113 -0.23799,0.29911 -0.36276,0.44389 0.12473,-0.14483 0.24584,-0.29268 0.36276,-0.44389 z m -0.40359,0.49094 c -0.12909,0.14803 -0.26155,0.29318 -0.39842,0.43407 0.13691,-0.14091 0.26935,-0.28596 0.39842,-0.43407 z m 31.41979,2.67681 c 0.0304,0.15097 0.0634,0.30131 0.0997,0.45064 -0.0364,-0.14936 -0.0693,-0.29964 -0.0997,-0.45064 z m 0.14418,0.62064 c 0.0307,0.11821 0.0622,0.23593 0.0966,0.35295 -0.0344,-0.11692 -0.0659,-0.23484 -0.0966,-0.35295 z m 0.14469,0.50903 c 0.038,0.12298 0.0778,0.24535 0.11989,0.3669 -0.0421,-0.12153 -0.0818,-0.24395 -0.11989,-0.3669 z m 0.16846,0.50435 c 0.0446,0.12374 0.0919,0.24638 0.14056,0.36846 -0.0488,-0.12203 -0.0959,-0.24477 -0.14056,-0.36846 z m 0.19483,0.50384 c 0.0561,0.13576 0.11508,0.27012 0.17621,0.4036 -0.0612,-0.13343 -0.12002,-0.26789 -0.17621,-0.4036 z"
         id="path18724" />
      <path
         id="path18726"
         d="m -175.64996,195.47571 c -10.88055,-0.13213 -30.67718,23.7215 -34.74672,36.56004 -1.55361,4.90132 -2.60201,10.76963 -3.30988,16.28738 a 44.520453,45.606319 0 0 1 27.61227,15.31121 c 4.75232,-5.69411 9.84354,-12.35575 12.69018,-17.82062 6.34435,-12.17962 8.45928,-46.83284 -0.19585,-49.98144 -0.63881,-0.23239 -1.32463,-0.34776 -2.05,-0.35657 z"
         style="fill:#ffaaaa;fill-opacity:1;stroke:none;stroke-width:0.69290411;stroke-linecap:butt;stroke-linejoin:miter;stroke-miterlimit:4;stroke-dasharray:none;stroke-opacity:0.05527637" />
      <path
         id="path18728"
         d="m -246.42446,205.86939 c -3.01213,0.0326 -6.3301,1.58855 -9.9291,5.29012 -14.79268,15.2142 -19.6789,13.33798 -9.55239,30.82241 4.46327,7.70628 9.18895,15.13189 13.08188,21.0323 a 44.520453,45.606319 0 0 1 27.18129,-14.71124 c -0.26873,-5.31169 -0.82998,-10.90598 -1.91719,-15.66726 -2.44852,-10.72295 -9.02483,-26.87295 -18.86449,-26.76633 z"
         style="fill:#ffaaaa;fill-opacity:1;stroke:none;stroke-width:0.69290411;stroke-linecap:butt;stroke-linejoin:miter;stroke-miterlimit:4;stroke-dasharray:none;stroke-opacity:0.05527637" />
      <path
         style="fill:#ff5a8c;fill-opacity:1;stroke:none;stroke-width:0.84587216;stroke-linecap:butt;stroke-linejoin:miter;stroke-miterlimit:4;stroke-dasharray:none;stroke-opacity:1"
         d="m -238.32703,298.20718 c -6.67356,2.98366 12.33664,18.13161 12.33664,18.13161 0,0 24.32899,-7.24735 18.75852,-12.21069 -5.42936,-4.8376 -25.2488,-8.53474 -31.09516,-5.92092 z"
         id="path18730" />
      <path
         style="opacity:1;fill:#008080;fill-opacity:1;stroke:none;stroke-width:0.19990307"
         d="m -232.93831,276.91278 a 4.4670229,4.8490968 0 0 1 -4.46702,4.8491 4.4670229,4.8490968 0 0 1 -4.46703,-4.8491 4.4670229,4.8490968 0 0 1 4.46703,-4.84909 4.4670229,4.8490968 0 0 1 4.46702,4.84909 z"
         id="ellipse18732" />
      <path
         style="opacity:1;fill:#008080;fill-opacity:1;stroke:none;stroke-width:0.19990307"
         d="m -194.93305,283.6196 a 4.4670229,4.8490968 0 0 1 -4.46702,4.8491 4.4670229,4.8490968 0 0 1 -4.46702,-4.8491 4.4670229,4.8490968 0 0 1 4.46702,-4.8491 4.4670229,4.8490968 0 0 1 4.46702,4.8491 z"
         id="ellipse18734" />
      <path
         style="opacity:1;fill:#f2f2f2;fill-opacity:1;stroke:none;stroke-width:0.21390069"
         d="m -151.5985,358.7356 c -0.76193,0 -1.51527,0.0412 -2.25051,0.12194 -8.81807,0.96859 -13.19553,14.97179 -20.85815,21.29843 -3.62822,2.99564 -7.09109,5.4002 -10.59987,7.61971 0.0222,4.20986 -0.17747,8.04619 -0.54002,11.298 -2.24461,20.1332 -7.09743,33.9212 -13.06122,43.3519 1.32744,-0.5569 2.62781,-1.19137 3.88658,-1.90635 17.44308,-9.15435 29.35329,-14.92279 44.37042,-21.65657 9.5481,-4.28141 25.45113,-1.62176 29.04681,-11.90522 1.46108,-4.17867 1.71165,-7.29321 -1.63969,-13.17903 -0.55863,-0.97329 -1.24127,-1.86914 -2.0283,-2.66289 3.53661,-4.48221 4.06299,-10.2448 1.72082,-14.51849 -2.2184,-4.04786 -7.1352,-6.43474 -12.46797,-6.02496 -0.21708,-1.6171 -0.7467,-3.18841 -1.55701,-4.61988 -2.93249,-5.15004 -8.68837,-7.2139 -14.02189,-7.21659 z"
         id="path18885" />
      <path
         style="fill:#ffb380;fill-opacity:1;stroke:none;stroke-width:0.31411818px;stroke-linecap:butt;stroke-linejoin:miter;stroke-opacity:1"
         d="m -224.92421,316.31877 v 0 c -0.35513,-0.003 -0.71138,0.004 -1.06867,0.0201 -4.64959,0.21302 -9.47273,2.05777 -14.24357,5.20539 0.73539,0.71538 1.36576,1.53617 1.84898,2.44996 1.29656,2.45208 1.57645,5.42316 0.75965,8.07392 -0.81681,2.65078 -2.71945,4.94961 -5.17126,6.24665 -0.4951,0.26183 -1.0516,0.36999 -1.58182,0.55036 -0.86723,2.44766 -2.53752,4.56745 -4.72529,5.96707 -0.44059,3.35489 -2.44255,6.49832 -5.4405,8.08942 a 2.3852094,2.3852094 0 0 1 -0.002,0 c -2.45186,1.29733 -5.42178,1.57795 -8.07289,0.76171 -1.10758,-0.34099 -2.15219,-0.87431 -3.08974,-1.55546 -5.08921,9.54559 -9.26368,20.35218 -11.94294,31.59186 -14.19027,59.52929 20.89251,78.16905 37.73103,78.7337 9.83825,0.32991 46.56129,4.00426 54.0737,-63.37906 1.19713,-10.73734 0.63918,-27.81998 -3.93361,-43.83558 -0.98966,0.46934 -2.04999,0.78444 -3.14658,0.90588 -2.7569,0.30528 -5.62271,-0.52541 -7.78815,-2.25877 -2.16544,-1.73337 -3.60508,-4.34814 -3.91087,-7.10499 -0.0617,-0.55666 0.0422,-1.11334 0.0692,-1.67275 -1.95801,-1.70566 -3.31603,-4.03826 -3.81423,-6.5872 -2.95855,-1.64208 -5.14705,-4.65823 -5.52577,-8.03103 a 2.3852094,2.3852094 0 0 1 5.3e-4,-0.003 c -0.30605,-2.75698 0.52375,-5.62268 2.25671,-7.78867 0.26027,-0.32528 0.54272,-0.63177 0.84026,-0.92294 -2.12329,-1.5121 -4.40765,-2.82623 -6.86521,-3.90726 -2.34025,-1.02939 -4.77097,-1.52964 -7.25692,-1.55081 z"
         id="path18883" />
      <path
         style="opacity:1;fill:#f9f9f9;fill-opacity:1;stroke:none;stroke-width:0.1854163"
         d="m -251.59156,321.69086 a 8.2112932,8.2112932 0 0 0 -3.72971,4.09146 9.2708151,9.2708151 0 0 0 -4.32712,1.07052 9.2708151,9.2708151 0 0 0 -4.72881,10.10478 8.2112932,8.2112932 0 0 0 -2.3822,10.43896 8.2112932,8.2112932 0 0 0 11.09798,3.41794 8.2112932,8.2112932 0 0 0 4.36057,-7.42142 9.2708151,9.2708151 0 0 0 0.3236,-0.15112 9.2708151,9.2708151 0 0 0 4.72222,-6.22058 8.2112932,8.2112932 0 0 0 2.34368,-0.81431 8.2112932,8.2112932 0 0 0 3.41793,-11.09797 8.2112932,8.2112932 0 0 0 -11.09814,-3.41825 z"
         id="path18877" />
      <path
         id="path18881"
         d="m -185.93378,344.70765 a 8.2112932,8.2112932 0 0 0 -2.43551,-4.97183 9.2708151,9.2708151 0 0 0 0.59371,-4.41787 9.2708151,9.2708151 0 0 0 -7.66149,-8.10986 8.2112932,8.2112932 0 0 0 -8.83425,-6.05002 8.2112932,8.2112932 0 0 0 -7.25543,9.06675 8.2112932,8.2112932 0 0 0 5.30097,6.78174 9.2708151,9.2708151 0 0 0 0.0217,0.35648 9.2708151,9.2708151 0 0 0 4.05122,6.67703 8.2112932,8.2112932 0 0 0 -0.10347,2.47896 8.2112932,8.2112932 0 0 0 9.06676,7.25542 8.2112932,8.2112932 0 0 0 7.25578,-9.0668 z"
         style="opacity:1;fill:#f9f9f9;fill-opacity:1;stroke:none;stroke-width:0.1854163" />
      <path
         style="opacity:1;fill:#ffaaaa;fill-opacity:1;stroke:none;stroke-width:0.19750352"
         d="m -141.01302,395.31139 a 8.4644375,8.4644375 0 0 0 -3.04747,11.5761 8.4644375,8.4644375 0 0 0 11.57611,3.04748 8.4644375,8.4644375 0 0 0 3.04747,-11.57612 8.4644375,8.4644375 0 0 0 -11.57611,-3.04746 z"
         id="circle18889" />
      <path
         style="opacity:1;fill:#ffaaaa;fill-opacity:1;stroke:none;stroke-width:0.19750352"
         d="m -157.64869,368.0796 a 8.4644375,8.4644375 0 0 0 -3.04747,11.5761 8.4644375,8.4644375 0 0 0 11.57611,3.04747 8.4644375,8.4644375 0 0 0 3.04747,-11.57611 8.4644375,8.4644375 0 0 0 -11.57611,-3.04746 z"
         id="circle18891" />
      <path
         style="opacity:1;fill:#ffaaaa;fill-opacity:1;stroke:none;stroke-width:0.19750352"
         d="m -139.32404,376.23629 a 8.4644375,8.4644375 0 0 0 -3.04747,11.57611 8.4644375,8.4644375 0 0 0 11.57611,3.04746 8.4644375,8.4644375 0 0 0 3.04747,-11.57611 8.4644375,8.4644375 0 0 0 -11.57611,-3.04746 z"
         id="circle18893" />
      <path
         style="opacity:1;fill:#ffaaaa;fill-opacity:1;stroke:none;stroke-width:0.19750352"
         d="m -316.58134,380.44868 a 8.4644375,8.4644375 0 0 1 0.38076,11.96447 8.4644375,8.4644375 0 0 1 -11.96446,0.38076 8.4644375,8.4644375 0 0 1 -0.38077,-11.96446 8.4644375,8.4644375 0 0 1 11.96447,-0.38077 z"
         id="circle18895" />
      <path
         style="opacity:1;fill:#ffaaaa;fill-opacity:1;stroke:none;stroke-width:0.19750352"
         d="m -294.2757,357.6282 a 8.4644375,8.4644375 0 0 1 0.38077,11.96447 8.4644375,8.4644375 0 0 1 -11.96447,0.38076 8.4644375,8.4644375 0 0 1 -0.38077,-11.96446 8.4644375,8.4644375 0 0 1 11.96447,-0.38077 z"
         id="circle18897" />
      <path
         style="opacity:1;fill:#ffaaaa;fill-opacity:1;stroke:none;stroke-width:0.19750352"
         d="m -313.96058,361.47913 a 8.4644375,8.4644375 0 0 1 0.38077,11.96447 8.4644375,8.4644375 0 0 1 -11.96447,0.38076 8.4644375,8.4644375 0 0 1 -0.38077,-11.96447 8.4644375,8.4644375 0 0 1 11.96447,-0.38076 z"
         id="circle18899" />
    </g>
  </g>
</svg>
