<?xml version="1.0" encoding="utf-8"?>
<!-- Generator: Adobe Illustrator 23.1.0, SVG Export Plug-In . SVG Version: 6.00 Build 0)  -->
<svg version="1.1" xmlns="http://www.w3.org/2000/svg" xmlns:xlink="http://www.w3.org/1999/xlink" x="0px" y="0px"
	 viewBox="0 0 720 307.95" style="enable-background:new 0 0 720 307.95;" xml:space="preserve">
<style type="text/css">
	.st0{fill:#D7ACC3;}
	.st1{fill:#536858;}
	.st2{fill:#EA5376;}
</style>
<g id="Слой_1">
	<path class="st0" d="M480.85,257.93l-8.82-5.28l3.01-10.18c0.2-0.67-0.01-1.39-0.54-1.84c-0.52-0.46-1.27-0.57-1.9-0.28
		c-4.93,2.24-9.44,3.82-13.06,4.57c-3.69,0.77-7.1,1.13-10.09,1.1c-3.07-0.04-5.87-0.51-8.35-1.4c-0.01,0-0.02-0.01-0.03-0.01
		c-0.14-0.07-0.29-0.13-0.44-0.18c-2.15-0.83-4.13-1.98-6.01-3.53c-2.21-1.82-4.26-4.2-6.17-7.09c-0.16-0.41-0.38-0.72-0.61-0.95
		c-1.13-1.82-2.21-3.82-3.22-6.02c-2.54-5.5-4.68-12.2-6.37-19.91c-1.94-8.89-3.26-18.66-4.05-30.02c0-0.13-0.01-0.25-0.02-0.38
		c-0.33-4.79-0.56-9.86-0.7-15.28c-0.02-0.88-0.04-1.78-0.06-2.68c0.01-0.13,0-0.26-0.01-0.39c-0.1-5.48-0.11-11.35-0.02-18.1
		c0.09-0.38,0.15-0.77,0.11-1.18c-0.01-0.15-0.05-0.28-0.09-0.42c0.01-0.42,0.01-0.83,0.02-1.26l0.21-12.55
		c0.01-0.7,0.13-3.65,0.28-7.33c0.09-0.35,0.15-0.7,0.15-1.08c0-0.18-0.04-0.36-0.09-0.52c0.01-0.2,0.02-0.4,0.02-0.6
		c0.31-7.46,0.66-15.92,0.62-17.49c0-0.02,0-0.03-0.01-0.05c0.07-1.43,0.11-2.87,0.11-4.32c0-44.97-32.02-78.88-74.49-78.88
		c-10.17,0-19.88,1.97-28.82,5.49c-8.74-5.27-18.34-8.05-28.23-8.05c-5.64,0-11.29,1.06-16.8,3.05C246.92,5.33,225.38,0,202.73,0
		c-32.96,0-64.55,11.15-91.35,32.23C85.2,52.83,65.47,81.3,54.34,114.57c-2.63,7.87-4.55,15.97-5.78,24.18
		c-0.6,4-3.05,19.41-3.62,23.19c0,0-0.04,0.24-0.04,0.24c-0.21,1.42-0.48,2.87-0.74,4.26c-0.16,0.83-0.31,1.67-0.46,2.49l-0.63,3.44
		c-0.12,0.7-0.29,1.37-0.46,2.05c-0.1,0.41-0.2,0.83-0.29,1.22l-1.61,6.71c-2.58,9.3-5.72,17.97-9.33,25.78l-1.43,3.07l-1.6,3.08
		c-0.94,1.88-1.96,3.64-3.05,5.5l-0.26,0.45c-0.38,0.69-0.8,1.33-1.21,1.98l-0.55,0.86c-0.58,0.92-1.18,1.88-1.81,2.76l-0.26,0.38
		c-0.54,0.78-1.07,1.56-1.67,2.33c-0.14,0.2-0.29,0.39-0.44,0.59c-1.8,0.37-3.82,1.35-5.99,3.38c-8.13,7.58-3.34,10.71-10.22,16.55
		c0,0,3.66,0.77,8.9-3.64c0,0-2.37,3.54-5.37,5.01c-2.2,1.08-6.55,5.26-6.43,8.65c0,0,2.1-4.22,8.56-4.47
		c4.28-0.16,8.9-1.66,14.41-7.17c2.43-2.43,3.99-5.08,4.79-7.57c0.37-0.31,0.73-0.62,1.09-0.94c0.91-0.77,1.75-1.57,2.57-2.35
		l0.23-0.22c0.98-0.89,1.9-1.85,2.72-2.69l0.69-0.71c0.64-0.66,1.31-1.33,1.92-2.03l0.16-0.18c1.61-1.78,3.27-3.62,4.79-5.55
		l2.42-2.98l2.25-3.03c2.6-3.53,5.13-7.29,7.57-11.25c4.02,14.16,4.58,29.2,1.58,43.64c-0.01,0.06-0.02,0.13-0.03,0.2l-5.01,54.25
		c-0.05,0.5,0.12,0.99,0.46,1.36c0.34,0.37,0.81,0.58,1.31,0.58h92.82c0.91,0,1.68-0.69,1.77-1.6l4.58-46.28
		c36.25,9.68,74.94,9.68,118.14,0l-3.08,45.99c-0.03,0.49,0.14,0.97,0.47,1.33c0.34,0.36,0.81,0.56,1.3,0.56h88.06
		c0.97,0,1.76-0.77,1.78-1.74l2.69-130.29c0-0.01,0-0.02,0-0.04c0-1.01-0.02-2.01-0.04-3.02c3.42,13.62,8.27,30.44,15.86,47.28
		c4.64,10.21,9.38,18.38,14.9,25.73c3.49,4.63,7.06,8.58,10.92,12.08c4.56,4.13,9.45,7.51,14.54,10.04
		c5.57,2.79,11.7,4.64,17.73,5.37c2.18,0.27,4.39,0.41,6.62,0.41c3.64,0,7.33-0.36,11.03-1.08c4.97-0.96,9.96-2.53,15.25-4.8
		c4.8-2.05,9.1-4.54,13.03-6.92c0.53-0.32,0.86-0.9,0.86-1.52C481.71,258.83,481.39,258.25,480.85,257.93z"/>
	<path class="st0" d="M718.76,278.35c-0.82-0.33-1.75-0.09-2.3,0.59c-2.08,2.56-4.75,4.54-7.74,5.72c-2.82,1.12-5.82,1.46-8.45,0.94
		c-2.48-0.48-4.92-1.74-6.87-3.55c-1.84-1.69-3.24-3.85-3.95-6.1c-0.04-0.13-0.1-0.24-0.16-0.36c0.61-2.8,0.93-5.7,0.93-8.68v-4.24
		c0-25.06-14.98-46.67-36.44-56.39c0.3-20.46-8.57-34.89-24.63-38.82c-6.69-1.64-13.59-1.15-20.17,1.29
		c-0.83-1.08-1.69-2.13-2.63-3.14c-8.1-8.68-19.56-13.66-31.43-13.66c-15.77,0-30.25,8.62-37.81,22.51l-0.21,0.4
		c-4.6,8.04-6.45,16.89-8.23,25.46l-0.59,2.81c-0.44,2.07-0.79,4.29-1.17,6.65c-0.75,4.69-1.52,9.54-3.02,13.33
		c-2.11,5.33-5.08,8.89-8.85,10.57c-4,1.79-8.97-0.01-13.35-1.59l-0.47-0.17c-0.83-0.3-1.67-0.67-2.56-1.06
		c-0.79-0.35-1.59-0.7-2.42-1.02c-0.58-0.22-1.22-0.17-1.75,0.16c-0.53,0.32-0.88,0.87-0.95,1.48l-0.68,6.02l-5.11,1.92
		c-0.64,0.24-1.11,0.8-1.25,1.47c-0.14,0.67,0.08,1.37,0.57,1.84l0.62,0.6c1.39,1.33,2.82,2.71,4.46,4.03l0.95,0.73
		c1.52,1.18,3.1,2.39,4.86,3.35c4.42,2.77,9.54,4.67,14.8,5.49c1.84,0.29,3.74,0.44,5.64,0.44c3.95,0,7.94-0.63,11.62-1.85
		c4.94-1.6,9.84-4.29,14.57-8.04c2.48-2,4.63-4.25,6.71-6.43c0.77-0.8,1.53-1.61,2.32-2.4c2.19-2.21,5.31-2.97,10.12-2.45
		c1.4,0.15,2.8,0.34,4.2,0.53c0.57,0.08,1.13,0.15,1.7,0.22c-0.68,21.59-2,49-4.57,68.66l-0.29,2.25h44.23l0.41-1.17
		c0.7-1.15,1.09-3.17,1.17-6.06c0.1-1.29,0.14-2.73,0.05-4.31c-0.09-1.44-0.28-3.3-0.52-5.27c-0.04-0.44-0.1-0.91-0.15-1.36
		c3,4.82,7.04,8.93,11.82,12.01l-0.23,6.16h27.68c12.37,0,23.47-5.53,30.99-14.23c1.33,0.92,2.72,1.75,4.17,2.46
		c4.15,2.02,8.58,3.06,12.94,3.06c0.86,0,1.72-0.04,2.58-0.12c5.1-0.49,9.37-1.22,14.07-5.67c5.16-4.85,5.96-12.65,5.99-12.98
		C720.07,279.5,719.57,278.68,718.76,278.35z"/>
</g>
<g id="Слой_2">
	<path class="st1" d="M266.93,34.75c-7.61,2.75-32.42,14.85-32.42,54.91c0,0.98,0.8,1.78,1.78,1.78c0.98,0,1.78-0.8,1.78-1.78
		c0-36.72,21.03-48.3,30.08-51.57c16.45-5.95,31.23,8.78,31.37,8.94c0.69,0.7,1.81,0.71,2.51,0.02c0.7-0.69,0.71-1.81,0.02-2.51
		C301.39,43.86,285.55,28.01,266.93,34.75z"/>
	<path class="st1" d="M392.29,82.9l-3.57-5.02c2.14-1.59,3.69-3.73,4.49-6.35c0.29-0.94-0.24-1.93-1.18-2.22
		c-0.94-0.29-1.93,0.24-2.22,1.18c-1.47,4.81-6.34,7.36-13.35,7c-8.65-0.45-11.72-6.18-12.64-8.63c-0.35-0.92-1.37-1.38-2.29-1.04
		c-0.92,0.35-1.38,1.37-1.04,2.29c0.57,1.52,1.81,4.06,4.19,6.3l-4.19,3.18c-0.78,0.59-0.93,1.71-0.34,2.49
		c0.33,0.43,0.82,0.67,1.32,0.7c0.4,0.02,0.82-0.1,1.16-0.36l5.02-3.81c1.83,1.06,4.08,1.89,6.85,2.25l-0.32,6.13
		c-0.05,0.98,0.7,1.82,1.68,1.87c0.98,0.05,1.82-0.7,1.87-1.68l0.32-6.12c2.83-0.04,5.37-0.53,7.55-1.43l3.79,5.33
		c0.33,0.46,0.83,0.72,1.36,0.75c0.39,0.02,0.78-0.08,1.12-0.33C392.67,84.81,392.86,83.7,392.29,82.9z"/>
	<path class="st1" d="M480.85,257.93l-8.82-5.28l3.01-10.18c0.2-0.67-0.01-1.39-0.54-1.84c-0.52-0.46-1.27-0.57-1.9-0.28
		c-4.93,2.24-9.44,3.82-13.06,4.57c-3.69,0.77-7.1,1.13-10.09,1.1c-3.07-0.04-5.87-0.51-8.35-1.4c-0.01,0-0.02-0.01-0.03-0.01
		c-0.14-0.07-0.29-0.13-0.44-0.18c-2.15-0.83-4.13-1.98-6.01-3.53c-2.21-1.82-4.26-4.2-6.17-7.09c-0.16-0.41-0.38-0.72-0.61-0.95
		c-1.13-1.82-2.21-3.82-3.22-6.02c-2.54-5.5-4.68-12.2-6.37-19.91c-1.94-8.89-3.26-18.66-4.05-30.02c0-0.13-0.01-0.25-0.02-0.38
		c-0.33-4.79-0.56-9.86-0.7-15.28c-0.02-0.88-0.04-1.78-0.06-2.68c0.01-0.13,0-0.26-0.01-0.39c-0.1-5.48-0.11-11.35-0.02-18.1
		c0.09-0.38,0.15-0.77,0.11-1.18c-0.01-0.15-0.05-0.28-0.09-0.42c0.01-0.42,0.01-0.83,0.02-1.26l0.21-12.55
		c0.01-0.7,0.13-3.65,0.28-7.33c0.09-0.35,0.15-0.7,0.15-1.08c0-0.18-0.04-0.36-0.09-0.52c0.01-0.2,0.02-0.4,0.02-0.6
		c0.31-7.46,0.66-15.92,0.62-17.49c0-0.02,0-0.03-0.01-0.05c0.07-1.43,0.11-2.87,0.11-4.32c0-44.97-32.02-78.88-74.49-78.88
		c-10.17,0-19.88,1.97-28.82,5.49c-8.74-5.27-18.34-8.05-28.23-8.05c-5.64,0-11.29,1.06-16.8,3.05C246.92,5.33,225.38,0,202.73,0
		c-32.96,0-64.55,11.15-91.35,32.23C85.2,52.83,65.47,81.3,54.34,114.57c-2.63,7.87-4.55,15.97-5.78,24.18
		c-0.6,4-3.05,19.41-3.62,23.19c0,0-0.04,0.24-0.04,0.24c-0.21,1.42-0.48,2.87-0.74,4.26c-0.16,0.83-0.31,1.67-0.46,2.49l-0.63,3.44
		c-0.12,0.7-0.29,1.37-0.46,2.05c-0.1,0.41-0.2,0.83-0.29,1.22l-1.61,6.71c-2.58,9.3-5.72,17.97-9.33,25.78l-1.43,3.07l-1.6,3.08
		c-0.94,1.88-1.96,3.64-3.05,5.5l-0.26,0.45c-0.38,0.69-0.8,1.33-1.21,1.98l-0.55,0.86c-0.58,0.92-1.18,1.88-1.81,2.76l-0.26,0.38
		c-0.54,0.78-1.07,1.56-1.67,2.33c-0.14,0.2-0.29,0.39-0.44,0.59c-1.8,0.37-3.82,1.35-5.99,3.38c-8.13,7.58-3.34,10.71-10.22,16.55
		c0,0,3.66,0.77,8.9-3.64c0,0-2.37,3.54-5.37,5.01c-2.2,1.08-6.55,5.26-6.43,8.65c0,0,2.1-4.22,8.56-4.47
		c4.28-0.16,8.9-1.66,14.41-7.17c2.43-2.43,3.99-5.08,4.79-7.57c0.37-0.31,0.73-0.62,1.09-0.94c0.91-0.77,1.75-1.57,2.57-2.35
		l0.23-0.22c0.98-0.89,1.9-1.85,2.72-2.69l0.69-0.71c0.64-0.66,1.31-1.33,1.92-2.03l0.16-0.18c1.61-1.78,3.27-3.62,4.79-5.55
		l2.42-2.98l2.25-3.03c2.6-3.53,5.13-7.29,7.57-11.25c4.02,14.16,4.58,29.2,1.58,43.64c-0.01,0.06-0.02,0.13-0.03,0.2l-5.01,54.25
		c-0.05,0.5,0.12,0.99,0.46,1.36c0.34,0.37,0.81,0.58,1.31,0.58h92.82c0.91,0,1.68-0.69,1.77-1.6l4.58-46.28
		c36.25,9.68,74.94,9.68,118.14,0l-3.08,45.99c-0.03,0.49,0.14,0.97,0.47,1.33c0.34,0.36,0.81,0.56,1.3,0.56h88.06
		c0.97,0,1.76-0.77,1.78-1.74l2.69-130.29c0-0.01,0-0.02,0-0.04c0-1.01-0.02-2.01-0.04-3.02c3.42,13.62,8.27,30.44,15.86,47.28
		c4.64,10.21,9.38,18.38,14.9,25.73c3.49,4.63,7.06,8.58,10.92,12.08c4.56,4.13,9.45,7.51,14.54,10.04
		c5.57,2.79,11.7,4.64,17.73,5.37c2.18,0.27,4.39,0.41,6.62,0.41c3.64,0,7.33-0.36,11.03-1.08c4.97-0.96,9.96-2.53,15.25-4.8
		c4.8-2.05,9.1-4.54,13.03-6.92c0.53-0.32,0.86-0.9,0.86-1.52C481.71,258.83,481.39,258.25,480.85,257.93z M355.15,287.51
		c-1.47-5.79-4.72-8.02-8.42-8.02c-6.38,0-11.02,5.99-14.42,16.23c-0.5-7.6-4.43-10.37-9.19-10.37c-6.25,0-12.65,5.44-15.85,19.05
		h-36.91l3.11-46.46c1.9-20.1,3.81-27.14,7.36-35.29c0.39-0.9-0.02-1.95-0.92-2.34c-0.9-0.39-1.95,0.02-2.34,0.92
		c-3.56,8.17-5.62,15.6-7.52,35.12c-43.25,9.84-81.89,9.88-118.01,0.14c2.44-18.54,2.77-42.15-3.44-54.59
		c-0.44-0.88-1.51-1.23-2.38-0.8c-0.88,0.44-1.23,1.5-0.8,2.38c6.02,12.07,5.44,35.85,2.89,54.08c0,0.01,0,0.02,0,0.04
		c0,0.01-0.01,0.02-0.01,0.03l-3.24,32.75c-1.84-7.89-6.7-10.8-10.95-10.8c-6.46,0-11.93,6.09-15.69,16.55
		c-0.38-7.93-4.37-10.79-9.22-10.79c-6.25,0-12.65,5.44-15.85,19.05H54.44l4.83-52.21c3.23-15.61,2.46-31.91-2.21-47.13
		c-2.21-7.21-3.85-14.56-4.94-21.96c-0.5,1.05-0.92,2.06-1.31,3.2c-0.23,0.68-0.44,1.37-0.61,2.06c-0.17,0.69-0.33,1.53-0.37,1.98
		c-0.01,0.07-0.03,0.14-0.04,0.21c0.83,4.28,1.85,8.54,3.05,12.75c-2.91,4.9-5.94,9.51-9.08,13.77l-2.2,2.97l-2.39,2.94
		c-1.46,1.85-3.09,3.65-4.65,5.39l-0.19,0.21c-0.55,0.64-1.15,1.25-1.79,1.9l-0.71,0.73c-0.82,0.85-1.67,1.72-2.59,2.56L28.98,234
		c-0.23,0.22-0.46,0.44-0.69,0.65c-0.16-1.06-0.49-2.02-1-2.82c0,0-1.47-1.67-3.93-2.46c0.27-0.38,0.53-0.76,0.79-1.14l0.24-0.35
		c0.67-0.94,1.3-1.94,1.93-2.93l0.52-0.82c0.44-0.69,0.9-1.41,1.31-2.14l0.24-0.42c1.06-1.83,2.17-3.72,3.14-5.67l1.62-3.13
		l1.46-3.15c3.69-7.99,6.9-16.84,9.54-26.39l1.63-6.79c0.09-0.39,0.18-0.78,0.28-1.17c0.19-0.75,0.37-1.5,0.51-2.27l0.63-3.44
		c0.14-0.83,0.3-1.65,0.45-2.46c0.16-0.84,5.19-36.88,10.05-51.4C80.16,48.62,138.44,3.55,202.73,3.55
		c20.95,0,40.94,4.67,59.18,13.11c0.17-0.05,0.34-0.1,0.51-0.15c-9.61,4.34-18.63,11.56-26.17,21.24
		c-13.14,16.88-20.38,38.9-20.38,62c0,35.13,16.45,56.33,30.25,67.94c16.41,13.8,36.2,19.97,48.54,19.97
		c26.57,0,40.72-12.94,48.14-31.67c2.78,1.57,5.6,3.08,8.44,4.48c1.9,0.94,3.83,1.82,5.78,2.67c0.28,4.21,0.44,8.45,0.44,12.73
		L355.15,287.51z M466.43,264.63c-5.06,2.17-9.81,3.66-14.53,4.57c-5.61,1.08-11.17,1.29-16.55,0.63
		c-5.63-0.68-11.36-2.41-16.57-5.02c-4.8-2.39-9.42-5.58-13.74-9.5c-3.69-3.35-7.11-7.13-10.47-11.58
		c-5.36-7.13-9.97-15.1-14.5-25.06c-8.4-18.63-13.41-37.31-16.84-51.5c-0.13-0.53-0.25-1.07-0.38-1.6c0.77,0.3,1.53,0.6,2.3,0.89
		c4.95,1.84,11.13,3.68,16.43,3.49c1.57-0.06,3.15-0.15,4.66-0.57c1.55-0.43,3.22-1.22,3.99-2.54c0.29-0.51,0.45-1.1,0.43-1.77
		c-0.17-3.91-3.32-5.34-6.21-7.08c-2.46-1.48-4.88-3-7.23-4.63c-4.69-3.25-9.16-6.72-13.27-10.49c-4.11-3.76-7.99-7.64-11.43-11.81
		c-1.13-1.29-2.18-2.63-3.2-3.98c0.94-8.87,1.24-18.12,1.24-27.34c0-0.98-0.8-1.78-1.78-1.78c-0.98,0-1.78,0.8-1.78,1.78
		c0,43.81-6.34,84.36-52.35,84.36c-11.69,0-30.53-5.92-46.25-19.14c-13.22-11.12-28.98-31.46-28.98-65.22
		c0-44.94,29.81-84.36,63.79-84.36c16.48,0,32.12,8.3,44.05,23.37c0.61,0.77,1.73,0.9,2.5,0.29c0.77-0.61,0.9-1.73,0.29-2.5
		c-4.51-5.69-9.54-10.46-14.93-14.25c7.87-2.8,16.32-4.35,25.14-4.35c40.44,0,70.93,32.38,70.93,75.33c0,1.58-0.05,3.15-0.13,4.71
		c0.01,0.02,0.02,0.05,0.03,0.07c-0.01,2.15-0.36,10.64-0.62,16.94c-0.02,0.55-0.04,1.08-0.07,1.59c-0.05,0.06-0.12,0.13-0.23,0.21
		c-2.11,1.57-9.72,1.46-15.37-0.23c-0.94-0.28-1.93,0.25-2.21,1.19c-0.28,0.94,0.25,1.93,1.19,2.21c2.79,0.83,6.81,1.5,10.52,1.5
		c2.19,0,4.26-0.24,5.93-0.8c-0.08,2.02-0.13,3.46-0.14,3.95l-0.21,12.53c-0.01,0.76-0.02,1.48-0.03,2.22
		c-1.02,1.08-7.56,1.66-13.69,0.37c-0.96-0.21-1.9,0.41-2.1,1.37c-0.2,0.96,0.41,1.9,1.37,2.1c1.62,0.34,4.93,0.82,8.29,0.82
		c2.16,0,4.34-0.21,6.09-0.77c-0.05,5.47-0.03,10.39,0.06,15.02c-0.74,1.17-7.11,2.78-12.2,2.29c-0.98-0.1-1.84,0.62-1.94,1.6
		c-0.09,0.98,0.62,1.84,1.6,1.94c0.6,0.06,1.32,0.09,2.12,0.09c3.14,0,7.52-0.49,10.52-1.82c0.14,5.06,0.37,9.83,0.68,14.35
		c0.01,0.05-0.01,0.1,0,0.15c-0.9,1.34-7.21,3.79-11.31,4.04c-0.98,0.06-1.72,0.9-1.66,1.88c0.06,0.94,0.84,1.67,1.77,1.67
		c0.04,0,0.07,0,0.11,0c2.81-0.17,8.04-1.5,11.41-3.45c0.47,5.62,1.07,10.86,1.83,15.8c-0.72,2.28-4.01,4.29-9.81,5.97
		c-0.94,0.27-1.49,1.26-1.21,2.2c0.23,0.78,0.94,1.28,1.71,1.28c0.16,0,0.33-0.02,0.49-0.07c3.14-0.91,7.02-2.28,9.63-4.55
		c0.37,2.05,0.76,4.05,1.19,6.01c0.69,3.17,1.46,6.17,2.3,9c-0.95,4.09-5.47,5.48-7.94,6.23c-0.94,0.29-1.47,1.28-1.18,2.22
		c0.23,0.77,0.94,1.26,1.7,1.26c0.17,0,0.34-0.02,0.52-0.08c2.01-0.61,5.95-1.82,8.44-4.87c0.86,2.46,1.79,4.75,2.77,6.88
		c1.06,2.31,2.2,4.42,3.4,6.36c0.04,0.09,0.1,0.16,0.15,0.24c0.05,0.08,0.1,0.17,0.16,0.26c-0.21,1.58-3.15,6-5.21,6.92
		c-0.9,0.4-1.3,1.45-0.9,2.34c0.29,0.66,0.94,1.06,1.62,1.06c0.24,0,0.49-0.05,0.72-0.15c2.12-0.94,4.73-3.95,6.19-6.75
		c1.52,1.94,3.13,3.63,4.83,5.03c2.16,1.78,4.44,3.11,6.93,4.08c0.1,0.44,0.2,2.01-1.48,6.71c-0.33,0.92,0.15,1.94,1.08,2.27
		c0.2,0.07,0.4,0.1,0.6,0.1c0.73,0,1.41-0.45,1.67-1.18c1.05-2.93,1.6-5.13,1.7-6.81c2.05,0.47,4.24,0.74,6.55,0.77
		c3.26,0.04,6.92-0.35,10.86-1.18c2.97-0.61,6.48-1.74,10.29-3.29l-2.32,7.86c-0.23,0.78,0.1,1.61,0.79,2.03l7.45,4.47
		C473.37,261.28,470.03,263.09,466.43,264.63z"/>
	<path class="st1" d="M718.76,278.35c-0.82-0.33-1.75-0.09-2.3,0.59c-2.08,2.56-4.75,4.54-7.74,5.72c-2.82,1.12-5.82,1.46-8.45,0.94
		c-2.48-0.48-4.92-1.74-6.87-3.55c-1.84-1.69-3.24-3.85-3.95-6.1c-0.04-0.13-0.1-0.24-0.16-0.36c0.61-2.8,0.93-5.7,0.93-8.68v-4.24
		c0-25.06-14.98-46.67-36.44-56.39c0.3-20.46-8.57-34.89-24.63-38.82c-6.69-1.64-13.59-1.15-20.17,1.29
		c-0.83-1.08-1.69-2.13-2.63-3.14c-8.1-8.68-19.56-13.66-31.43-13.66c-15.77,0-30.25,8.62-37.81,22.51l-0.21,0.4
		c-4.6,8.04-6.45,16.89-8.23,25.46l-0.59,2.81c-0.44,2.07-0.79,4.29-1.17,6.65c-0.75,4.69-1.52,9.54-3.02,13.33
		c-2.11,5.33-5.08,8.89-8.85,10.57c-4,1.79-8.97-0.01-13.35-1.59l-0.47-0.17c-0.83-0.3-1.67-0.67-2.56-1.06
		c-0.79-0.35-1.59-0.7-2.42-1.02c-0.58-0.22-1.22-0.17-1.75,0.16c-0.53,0.32-0.88,0.87-0.95,1.48l-0.68,6.02l-5.11,1.92
		c-0.64,0.24-1.11,0.8-1.25,1.47c-0.14,0.67,0.08,1.37,0.57,1.84l0.62,0.6c1.39,1.33,2.82,2.71,4.46,4.03l0.95,0.73
		c1.52,1.18,3.1,2.39,4.86,3.35c4.42,2.77,9.54,4.67,14.8,5.49c1.84,0.29,3.74,0.44,5.64,0.44c3.95,0,7.94-0.63,11.62-1.85
		c4.94-1.6,9.84-4.29,14.57-8.04c2.48-2,4.63-4.25,6.71-6.43c0.77-0.8,1.53-1.61,2.32-2.4c2.19-2.21,5.31-2.97,10.12-2.45
		c1.4,0.15,2.8,0.34,4.2,0.53c0.57,0.08,1.13,0.15,1.7,0.22c-0.68,21.59-2,49-4.57,68.66l-0.29,2.25h44.23l0.41-1.17
		c0.7-1.15,1.09-3.17,1.17-6.06c0.1-1.29,0.14-2.73,0.05-4.31c-0.09-1.44-0.28-3.3-0.52-5.27c-0.04-0.44-0.1-0.91-0.15-1.36
		c3,4.82,7.04,8.93,11.82,12.01l-0.23,6.16h27.68c12.37,0,23.47-5.53,30.99-14.23c1.33,0.92,2.72,1.75,4.17,2.46
		c4.15,2.02,8.58,3.06,12.94,3.06c0.86,0,1.72-0.04,2.58-0.12c5.1-0.49,9.37-1.22,14.07-5.67c5.16-4.85,5.96-12.65,5.99-12.98
		C720.07,279.5,719.57,278.68,718.76,278.35z M568.49,232.78c-1.43-0.19-2.86-0.38-4.3-0.54c-3.8-0.41-9.32-0.48-13.37,3.61
		c-0.81,0.81-1.59,1.63-2.37,2.45c-2.08,2.18-4.05,4.24-6.32,6.07c-4.34,3.43-8.82,5.91-13.33,7.36
		c-4.88,1.62-10.34,2.07-15.39,1.26c-4.74-0.74-9.34-2.45-13.41-5c-1.59-0.86-2.97-1.93-4.44-3.06l-0.93-0.71
		c-0.86-0.7-1.69-1.44-2.49-2.19l3.28-1.23c0.7-0.26,1.19-0.9,1.28-1.64l0.52-4.57c0.86,0.38,1.75,0.77,2.66,1.1l0.46,0.17
		c4.83,1.75,10.85,3.92,16.33,1.48c0.67-0.3,1.31-0.65,1.94-1.04c0.69,1.25,1.38,2.51,2.06,3.76c0.24,0.43,0.72,0.79,1.19,0.92
		c0.48,0.13,1.11,0.07,1.54-0.2c0.93-0.6,1.25-1.75,0.71-2.73c-0.78-1.42-1.55-2.83-2.33-4.25c1.06-1.04,2.03-2.25,2.93-3.61
		c0.54,0.3,1.07,0.63,1.57,1.01c0.79,0.64,1.51,1.36,2.15,2.16c0.11,0.15,0.22,0.3,0.33,0.46c0.29,0.43,0.68,0.77,1.19,0.92
		c0.48,0.13,1.11,0.07,1.54-0.2c0.86-0.55,1.34-1.8,0.71-2.73c-0.86-1.28-1.89-2.46-3.09-3.44c-0.78-0.63-1.59-1.16-2.44-1.63
		c0.33-0.69,0.64-1.4,0.94-2.15c1.65-4.19,2.46-9.26,3.25-14.16c0.37-2.3,0.71-4.48,1.13-6.45l0.59-2.83
		c1.8-8.64,3.5-16.8,7.82-24.36l0.23-0.44c6.84-12.59,19.98-20.4,34.29-20.4c10.77,0,21.17,4.52,28.52,12.4
		c0.62,0.67,1.21,1.36,1.78,2.06c-2.21,1.1-4.37,2.43-6.46,3.99c-0.88,0.66-1.06,1.91-0.4,2.79c0.66,0.88,1.91,1.06,2.79,0.4
		c8.34-6.25,17.95-8.47,27.05-6.24c20.43,4.99,23.89,27.8,20.32,47.48c-2.25,12.4-10.66,23.5-22.48,29.69
		c-8.75,4.58-17.98,5.5-24.69,2.46c-17.34-7.86-22.96-23.18-17.18-46.83c0.26-1.07-0.39-2.15-1.46-2.41
		c-1.07-0.26-2.15,0.39-2.41,1.46c-2.91,11.92-2.99,22.02-0.33,30.31C576.22,233.78,572.44,233.3,568.49,232.78z M653.56,303.62
		c-1.67-8.53-3.41-11.95-6.93-11.95c-2.75,0-7.05,1.81-7.26,6.83c-2.13-6.62-3.19-10.47-6.85-10.47c-1.92,0-4.62,1.18-6.48,4.17
		c1.14-24.47,12.03-43.73,25.26-43.73c4.56,0,9.05,2.39,13,6.91c0.73,0.83,1.98,0.91,2.81,0.19c0.83-0.72,0.91-1.98,0.19-2.81
		c-4.73-5.41-10.26-8.27-16-8.27c-16.45,0-29.34,22.81-29.34,51.93c0,0.17,0.01,0.33,0.01,0.5c-4.06-3.05-7.42-6.95-9.81-11.47
		l-3.74-7.08c-0.53-3.28-1.15-6.79-1.88-10.61c-0.21-1.08-1.25-1.79-2.33-1.59c-2.07,0.4-1.49,2.65-1.26,4.09
		c0.01,0.04,1.44,8.8,1.44,8.8c0.01,0.09,1.06,6.49,1.75,12.04c0.41,3.92,0.54,6.73,0.54,8.73c-0.11,1.71-0.36,3.1-0.58,4.04h-7.45
		c-1.71-9.1-3.55-12.54-7.63-12.72c-1.51-0.07-5.77,1.34-6.71,6.83c-1.24-6.51-4.01-10.47-7.67-10.47c-1.92,0-4.38,1.18-6.02,4.16
		c1.58-17.4,2.49-37.55,3.02-54.28c2.57,0.22,5.18,0.28,7.81-0.03c3.46,7.51,9.53,13.28,18.24,17.23c3.19,1.44,6.75,2.16,10.52,2.16
		c5.62,0,11.7-1.59,17.67-4.72c12.9-6.76,22.08-18.91,24.55-32.51c0.56-3.08,0.93-6.06,1.15-8.94c19.31,9.4,32.65,29.21,32.65,52.08
		v4.24C686.22,285.84,671.92,301.48,653.56,303.62z M711.27,290.46c-3.79,3.59-7.1,4.15-11.71,4.6c-4.45,0.42-9.08-0.46-13.39-2.56
		c-1.2-0.58-2.35-1.27-3.45-2.02c2-2.83,3.65-5.91,4.88-9.2c0.86,1.35,1.9,2.61,3.09,3.7c2.53,2.33,5.57,3.9,8.8,4.52
		c3.37,0.67,7.17,0.26,10.69-1.14c1.4-0.56,2.75-1.25,4.02-2.08C713.51,287.75,712.56,289.25,711.27,290.46z"/>
	<path class="st1" d="M569.37,176.82c-0.46,0.38-1.01,0.66-1.59,0.83c-0.32-0.66-0.74-1.28-1.23-1.88c1.15-0.74,2.14-1.7,2.9-2.84
		c0.51-0.76,0.31-1.79-0.45-2.3c-0.76-0.51-1.79-0.31-2.3,0.45c-0.67,1-1.65,1.84-2.74,2.35c-0.05,0.02-0.08,0.06-0.12,0.09
		c-0.08-0.04-0.14-0.1-0.22-0.14c-0.53-0.28-1.06-0.5-1.59-0.67l0.91-1.86c0.4-0.82,0.06-1.82-0.76-2.22
		c-0.83-0.4-1.82-0.06-2.22,0.77l-1.4,2.88c-2.26,0.15-4.29,1.1-5.69,2.37c-0.68,0.62-0.72,1.67-0.11,2.35
		c0.62,0.68,1.67,0.73,2.35,0.11c1.15-1.05,3.91-2.4,6.97-0.79c3.08,1.63,3.5,4.76,3.3,6.18c-0.13,0.91,0.49,1.75,1.4,1.88
		c0.08,0.01,0.16,0.02,0.24,0.02c0.81,0,1.52-0.59,1.64-1.42c0.1-0.68,0.1-1.4,0.02-2.13c1.03-0.3,2-0.79,2.82-1.47
		c0.71-0.59,0.8-1.63,0.21-2.34C571.12,176.32,570.07,176.23,569.37,176.82z"/>
	<path class="st1" d="M614.48,184.34c4.2-1.13,14.52-2.71,19.71,6.97c4.38,8.18,4.26,20.54-0.28,29.39
		c-0.42,0.82-0.1,1.82,0.72,2.24c0.24,0.12,0.5,0.18,0.76,0.18c0.6,0,1.18-0.33,1.48-0.9c5.09-9.91,5.19-23.26,0.26-32.47
		c-4.38-8.17-13.16-11.39-23.5-8.61c-0.89,0.24-1.41,1.15-1.17,2.04C612.69,184.05,613.6,184.58,614.48,184.34z"/>
</g>
<g id="Слой_3">
	<path class="st2" d="M472,184.4c-6.14,2.13-4.64,8.67-4.64,8.67s-2.87-6.06-9.01-3.93c-6.14,2.13-5.46,8.75-3.1,11.75
		c2.42,3.08,7.47,7.3,18.12,9.49c7.95-9.35,8.34-14.67,8.35-18.67C481.72,187.89,478.14,182.27,472,184.4z"/>
	<path class="st2" d="M507.04,152.01c-7.14-1.2-9.18,6-9.18,6s0.43-7.47-6.71-8.67c-7.14-1.2-10.03,5.65-9.32,9.84
		c0.72,4.31,3.41,11.14,12.65,18.98c12.78-4.89,16.01-9.89,18.16-13.8C514.68,160.63,514.18,153.21,507.04,152.01z"/>
	<path class="st2" d="M476.47,122.04c-0.05-5.52-5.34-13.6-14.18-10.41c-8.84,3.19-6.57,12.62-6.57,12.62s-4.26-8.72-13.11-5.54
		c-8.84,3.19-7.75,12.76-4.29,17.06c3.56,4.41,10.94,10.44,26.38,13.42C476.06,135.54,476.53,127.83,476.47,122.04z"/>
	<path class="st2" d="M173.65,92.25l0.14-0.46c-0.46-0.44-5.05-4.53-4.85-4.8c-4.26,6.06-8.77,11.14-15.56,14.53
		c-6.82,3.41-14.49,4.61-22.06,4.66c-1.35,0.01-2.76-0.02-4.18-0.09c-2.43-0.11-3.94-0.87-5.04-2.54
		c-10.51-16-12.76-30.1-7.05-44.38c0.19-0.49,0.15-0.99,0.11-1.51c-0.02-0.22-0.04-0.46-0.04-0.72l0-0.56l-5.35-1.6l-0.31,0.38
		c-6,7.39-7.85,15.99-5.63,26.3c2.11,9.82,6.28,18.5,10.69,27.69c1.04,2.17,2.09,4.35,3.11,6.56l0.22,0.47l0.51-0.04
		c1.76-0.15,3.44-0.25,5.08-0.36c3.5-0.22,6.81-0.43,10.07-0.98l1.82-0.31c6.82-1.15,13.88-2.34,20.57-4.43
		C164.69,107.29,170.84,101.13,173.65,92.25z"/>
	<path class="st2" d="M103.7,56.12l0.57-1.08l-1.2-0.03c-2.29-0.05-4.46-0.29-6.58-0.7c-5.55,6.01-10.72,12.51-15.44,19.45
		c2.14,1.79,5.18,3.38,9.6,5.02c1.62,0.6,3.27,1.21,5.06,1.2c1.1-0.01,2.14-0.25,3.17-0.73l0.48-0.23l-0.06-0.54
		C98.44,70.58,99.83,63.47,103.7,56.12z"/>
	<path class="st2" d="M124.76,53.9c2.75-0.02,5.23-0.64,7.57-1.9l0.34-0.18l0.04-0.39c1.04-9.21-2.42-15.6-10.52-19.52
		c-2.05,1.43-4.07,2.91-6.06,4.45c-2.65,3.7-3.9,8.07-4.21,14.06l-0.03,0.57l0.53,0.18C116.81,52.67,120.77,53.92,124.76,53.9z"/>
	<path class="st2" d="M225.68,12.05c-3.98,7.86-10.64,12.83-17.7,17.64l-0.26,0.18l-0.06,0.31c-0.37,2.1-0.69,4.14-1,6.14
		c-0.67,4.34-1.31,8.44-2.37,12.42c-1.59,6-2.62,7.38-5.49,7.4c-1.17,0.01-2.71-0.23-5.17-0.79c-5.03-1.14-9.83-3.16-13.45-4.78
		c-1.41-0.63-2.65-0.92-3.91-0.92c-1.2,0.01-2.46,0.29-3.97,0.89c-6.1,2.45-11.66,4.22-17,5.44c-1.1,0.25-1.91,0.37-2.55,0.37
		c-1.58,0.01-2.34-0.58-3.41-3.88c-1.36-4.21-2.29-8.66-3.19-12.97c-0.21-0.99-0.41-1.97-0.62-2.96c-0.25-1.16-0.29-2.39-0.33-3.58
		c-0.02-0.55-0.04-1.09-0.08-1.61l-0.02-0.34l-0.27-0.21c-1.07-0.83-2.14-1.63-3.2-2.42c-2.14-1.61-4.17-3.14-6.12-4.78
		c-3.21,1.77-6.37,3.66-9.46,5.67c0.18,0.13,0.36,0.26,0.55,0.39c6.58,4.33,9.68,9.81,10.35,18.35c0.6,7.57,2.95,14.69,7,21.18
		l0.22,0.36l0.42-0.01c8.33-0.18,15.9-2,22.5-5.4c3.14-1.62,6.08-2.41,8.99-2.43c2.99-0.02,6.03,0.75,9.56,2.43
		c7.01,3.32,14.44,4.99,22.09,4.94l0.86-0.01l0.21-0.38c4.13-7.52,6.54-16.23,7.58-27.42c0.36-3.87,1.68-6.24,4.7-8.45
		c8.33-6.07,14.68-12.81,19.42-20.59l0.02-0.02c-5.59-1.69-11.31-3.04-17.13-4.01C224.26,9.44,225.03,10.72,225.68,12.05z"/>
	<path class="st2" d="M175.98,32.58c10.98-0.06,19.91-9.1,20.01-20.15c0.02-1.97-0.28-3.94-0.86-5.87
		c-3.07,0.14-6.12,0.42-9.15,0.77c0.76,1.46,1.21,3.04,1.26,4.65c0.08,2.73-1.04,5.55-3.09,7.74c-2.14,2.28-5.01,3.62-7.89,3.67
		l-0.12,0c-6.01,0.03-11.28-4.93-11.5-10.84c-0.01-0.32,0.02-0.64,0.04-0.97c-2.91,0.83-5.8,1.76-8.65,2.78
		C157.12,24.42,165.84,32.58,175.98,32.58z"/>
	<path class="st2" d="M230.48,30.06l-0.34-0.23l-0.37,0.18c-8.82,4.16-12.4,10.57-11.27,20.15l0.05,0.42l0.37,0.18
		c1.83,0.86,3.7,1.39,5.67,1.59c2.34-4.47,5.01-8.73,8-12.7c1.01-1.33,2.04-2.61,3.1-3.84C234.31,33.37,232.61,31.5,230.48,30.06z"
		/>
	<path class="st2" d="M176.06,88.13l0.49,0.41l0.47-0.43c5.92-5.44,10.5-10.2,11.05-17.8l0.04-0.52l-0.47-0.22
		c-5.77-2.68-8.91-4.07-11.86-4.05c-3.08,0.02-5.84,1.59-10.87,4.61l-0.42,0.25l0.06,0.49C165.46,78.65,170.51,83.47,176.06,88.13z"
		/>
	<path class="st2" d="M191.09,111.58c-2.21-1.37-4.3-2.67-6.1-4.24c-1.92-1.68-3.62-3.66-5.42-5.75c-0.82-0.96-1.66-1.93-2.55-2.91
		l-0.55-0.61l-0.54,0.62c-0.81,0.93-1.59,1.86-2.36,2.79c-1.73,2.08-3.36,4.05-5.25,5.73c-1.97,1.76-4.21,3.24-6.57,4.81
		c-1.55,1.03-3.03,1.96-4.67,2.74c1.01,0.75,1.89,1.6,2.75,2.52c3.51,3.77,8.44,6.24,12.88,8.75c1.34,0.75,2.67,1.51,4,2.27
		l0.39,0.22l0.37-0.25c1.29-0.84,2.58-1.68,3.88-2.52c4.87-3.15,10.14-5.98,13.18-11.12l0.37-0.62l-0.6-0.4
		C193.21,112.9,192.13,112.23,191.09,111.58z"/>
	<path class="st2" d="M206.97,103.77c-8.96-1.84-16.37-6.99-22.66-15.74l-0.5-0.69L179,92.02l0.18,0.47
		c3.4,8.82,9.67,14.67,19.16,17.87c4.75,1.6,10.01,2.71,16.41,3.46c-0.33-2.91-0.53-5.94-0.61-9.08
		C211.34,104.5,209.06,104.19,206.97,103.77z"/>
	<path class="st2" d="M132.1,99.61c7.65,0,7.66-11.89,0-11.89C124.45,87.73,124.44,99.61,132.1,99.61z"/>
	<path class="st2" d="M147.52,118.58c-7.65,0-7.66,11.89,0,11.89C155.17,130.46,155.18,118.58,147.52,118.58z"/>
	<path class="st2" d="M202.75,118.01c-6.61,0-6.63,10.28,0,10.28C209.36,128.29,209.37,118.01,202.75,118.01z"/>
	<path class="st2" d="M91.99,86.7c-7.65,0-7.66,11.89,0,11.89C99.64,98.59,99.65,86.7,91.99,86.7z"/>
</g>
</svg>
