<?xml version="1.0" encoding="UTF-8" standalone="no"?>
<svg
   xmlns:dc="http://purl.org/dc/elements/1.1/"
   xmlns:cc="http://creativecommons.org/ns#"
   xmlns:rdf="http://www.w3.org/1999/02/22-rdf-syntax-ns#"
   xmlns:svg="http://www.w3.org/2000/svg"
   xmlns="http://www.w3.org/2000/svg"
   id="svg19097"
   version="1.1"
   viewBox="0 0 210 297"
   height="297mm"
   width="210mm">
  <defs
     id="defs19091" />
  <metadata
     id="metadata19094">
    <rdf:RDF>
      <cc:Work
         rdf:about="">
        <dc:format>image/svg+xml</dc:format>
        <dc:type
           rdf:resource="http://purl.org/dc/dcmitype/StillImage" />
        <dc:title></dc:title>
      </cc:Work>
    </rdf:RDF>
  </metadata>
  <g
     id="layer1">
    <g
       transform="translate(173.19065,-34.745038)"
       id="g19990">
      <path
         style="fill:#000000;stroke-width:0.20025571"
         d="m -80.436456,210.59222 c -12.27447,-1.03665 -23.773734,-4.73199 -34.376674,-11.04711 -10.27397,-6.11917 -19.6286,-15.24981 -26.0894,-25.46472 -6.36733,-10.06711 -10.30428,-20.99092 -11.94452,-33.14231 -0.52756,-3.90838 -0.73062,-12.25137 -0.39982,-16.42775 0.62258,-7.86018 2.21569,-15.16118 4.87071,-22.32173 7.20729,-19.437927 21.66644,-35.49831 40.09477,-44.534925 8.310304,-4.075085 16.866704,-6.580799 26.543264,-7.773115 2.85667,-0.35199 14.20961,-0.348345 17.02174,0.0055 3.63937,0.457887 7.76754,1.209699 10.69316,1.947406 31.67733,7.987618 55.1343798,34.575812 59.4422798,67.376904 0.59913,4.5619 0.64969,15.82151 0.0904,20.12569 -1.68167,12.9413 -5.98821999,24.71196 -12.8585,35.14488 -3.3642898,5.10888 -6.0618198,8.39284 -10.6974398,13.02303 -13.07161,13.05633 -29.79497,20.98818 -48.3163,22.91634 -2.66951,0.27792 -11.53623,0.38623 -14.07365,0.17194 z"
         id="path19932" />
      <path
         style="fill:#008080;stroke-width:0.75687194"
         d="m -278.19141,192.83594 c -12.63576,0.0874 -25.29945,0.57516 -31.875,1.41992 -55.26799,7.10029 -102.73711,26.31996 -145.69921,58.99219 -9.09627,6.91762 -21.19141,17.20417 -21.19141,18.02148 0,0.30361 0.87596,1.59207 1.94726,2.86524 1.07131,1.27315 2.70802,3.77007 3.63672,5.54687 2.94856,5.64113 8.80705,7.1737 18.13477,4.74414 6.34843,-1.65356 9.0691,-1.425 13.93555,1.17188 5.10618,2.72481 5.35391,2.70398 20.54296,-1.63672 5.66295,-1.61835 11.31885,-2.93766 12.56836,-2.9336 3.12851,0.0102 9.37337,3.04717 12.31641,5.99024 3.62925,3.62922 3.45144,7.37471 -0.53906,11.36523 -3.43302,3.433 -12.97018,9.22262 -18.78321,11.40235 -2.18936,0.82095 -7.69866,2.16234 -12.24218,2.98046 -12.48768,2.2486 -15.94532,4.25693 -15.94532,9.26563 0,2.28019 0.84057,2.91155 7.57032,5.68164 2.51622,1.03572 5.01394,2.76752 6.3164,4.37891 1.51994,1.88037 2.76732,2.66601 4.23438,2.66601 3.07959,0 10.47516,-5.13528 18.95117,-13.1582 8.90464,-8.42863 13.60344,-11.06884 19.65234,-11.04492 8.41151,0.0333 14.52678,4.50576 18.19141,13.30859 4.77494,11.46996 2.11801,18.95603 -9.48242,26.71484 -3.03426,2.02943 -5.97116,3.87942 -6.52539,4.10938 -0.74733,0.31007 -0.62316,0.65799 0.48047,1.34766 3.59803,2.24851 4.94531,4.34208 4.94531,7.68554 0,2.65122 -0.42904,3.71197 -2.19141,5.40039 -1.8243,1.7478 -3.3712,2.27529 -9.20312,3.14649 -5.08933,0.76027 -7.75492,1.57058 -9.72852,2.95703 -10.54016,7.40455 -13.18508,8.95043 -18.80078,10.98242 -3.47036,1.25575 -7.27787,2.78473 -8.46094,3.39649 -4.06303,2.10107 -8.00873,7.63586 -12.09765,16.9746 -3.12635,7.14044 -4.90361,10.10196 -8.31641,13.85352 -4.92639,5.4155 -6.88697,9.63252 -6.88867,14.81641 -0.002,6.54417 -4.23189,11.82812 -9.4668,11.82812 -3.76634,0 -7.88117,-4.30009 -12.20703,-12.75976 -4.72233,-9.23498 -6.5586,-11.54395 -10.00391,-12.57618 -6.22473,-1.86497 -19.32047,3.14736 -24.95703,9.55079 -5.65168,6.42066 -9.5428,16.55681 -7.24023,18.85937 1.26735,1.26735 1.58742,1.2971 12.90234,1.16992 8.42956,-0.0949 11.54822,0.76507 14.53711,4.00781 1.5007,1.62819 1.77495,2.69384 1.71875,6.6875 -0.079,5.60051 0.96169,7.57441 5.11524,9.69336 6.0884,3.1061 9.21522,8.60735 9.96289,17.5293 0.30009,3.58148 0.95647,7.27569 1.45703,8.21094 0.80715,1.50822 1.29053,1.64322 4.27734,1.19531 1.85223,-0.27779 4.62993,-1.03264 6.17383,-1.67773 2.00357,-0.83713 4.0661,-1.04099 7.20508,-0.71289 4.20828,0.43986 4.64913,0.31271 10.20508,-2.93946 5.15206,-3.01587 6.31967,-3.39703 10.36328,-3.38672 5.73127,0.0151 14.5825,2.21883 21.3164,5.3086 2.85423,1.30964 8.96577,3.17586 13.58203,4.14648 4.61628,0.97066 9.55483,2.2533 10.97461,2.85157 4.2539,1.79246 10.06222,6.88712 15.89649,13.94531 7.1249,8.61955 15.68014,17.46883 18.1543,18.77734 1.07259,0.56727 5.15926,1.93103 9.08203,3.03125 7.32128,2.05338 23.79163,9.46907 28.94922,13.0332 4.4005,3.04094 6.16327,7.00221 6.15039,13.82422 -0.0113,6.04551 -1.19264,9.21515 -7.44141,19.95313 -1.42027,2.44063 -3.84833,8.74337 -5.39453,14.0039 -4.55618,15.50098 -7.84177,20.47352 -17.09375,25.87696 -5.91235,3.45301 -7.94456,5.72482 -9.01953,10.08593 -1.8751,7.60736 -2.51647,9.04776 -5.25391,11.78516 -1.59711,1.59712 -5.23971,4.29822 -8.09375,6.00195 -8.35733,4.98894 -9.67891,6.34002 -9.49023,9.69922 0.19993,3.55941 -3.52942,14.32422 -6.1543,17.76563 -3.96682,5.2007 -7.34576,16.28607 -8.8457,29.01367 -1.57607,13.37333 -3.95615,17.78516 -9.5918,17.78516 -7.79565,0 -18.63982,-11.01124 -20.73633,-21.05469 -0.49376,-2.36557 -1.72665,-7.5356 -2.73828,-11.49024 -1.45829,-5.70081 -2.05269,-11.03227 -2.86914,-25.73437 -0.72287,-13.01745 -1.61634,-21.70015 -3.00195,-29.13867 -2.55995,-13.74263 -3.54284,-16.70723 -8.4043,-25.35547 -2.22304,-3.95463 -5.26504,-10.05946 -6.75977,-13.56641 -3.01458,-7.07282 -7.31745,-13.47376 -14.79101,-22.00586 -7.32813,-8.36617 -10.28177,-12.48331 -12.96875,-18.07422 -4.93327,-10.2647 -3.484,-25.62494 3.48242,-36.92187 3.85361,-6.24911 5.03222,-9.84266 4.43555,-13.51953 -0.67824,-4.17952 -1.64122,-4.52321 -8.75391,-3.11133 -3.42845,0.68054 -7.4258,1.23489 -8.88281,1.23047 -4.30961,-0.0113 -9.98527,-3.1543 -13.69336,-7.57813 -7.49503,-8.94164 -8.36433,-9.73827 -11.92773,-10.92187 -1.96782,-0.65359 -5.94825,-3.09693 -8.84571,-5.42969 -6.58401,-5.30082 -8.32386,-6.02329 -15.94531,-6.62695 -8.3466,-0.66112 -12.50949,-2.20905 -15.83203,-5.88672 -3.60847,-3.99417 -5.28587,-8.04124 -8.3711,-20.20508 -2.64684,-10.43543 -6.83779,-21.34773 -8.39257,-21.85547 -0.56629,-0.18482 -1.07228,1.20194 -1.40235,3.84375 -0.28422,2.27392 -1.18202,5.22969 -1.99609,6.56836 -1.31947,2.16968 -1.76257,2.38812 -4.08203,2.01172 -3.02778,-0.49134 -2.77466,-1.10446 -4.45508,10.83594 -3.9179,27.83966 -3.31754,64.5368 1.5,91.58008 9.21086,51.70529 29.71299,97.16175 62.12891,137.75195 10.41978,13.04731 31.05012,33.68708 44.18164,44.20312 46.60229,37.32008 101.26155,59.02584 161.9707,64.32032 8.12595,0.70866 48.44477,-0.24998 56.5957,-1.34571 48.19548,-6.4792 89.33498,-21.77302 128.54883,-47.78906 43.127925,-28.6128 78.923759,-69.15023 102.34961,-115.9082 15.31052583,-30.55983 25.270441,-63.76817 30.152344,-100.53125 2.336693,-17.59639 1.754107,-63.2955 -0.982422,-77.02539 -0.581291,-2.91666 -3.731189,-4.33985 -9.6093751,-4.33985 -5.29175428,0 -4.70347851,0.29044 -16.0371089,-7.91015 -3.330218,-2.40964 -7.873833,-5.27636 -10.095704,-6.3711 l -4.039062,-1.99023 -1.447266,1.78711 c -3.116901,3.84744 -0.808592,12.18287 4.333985,15.64844 1.294337,0.87224 5.67065,2.37265 9.724609,3.33593 9.4852535,2.25381 12.49804686,4.57098 12.49804688,9.60743 0,4.35696 -2.84433288,9.95421 -6.72851568,13.24414 -1.6524093,1.39959 -8.7342622,5.26965 -15.7363282,8.59961 l -12.730469,6.05468 h -7.632812 c -7.296491,5.3e-4 -7.808856,-0.10721 -11.59375,-2.45898 -3.743547,-2.326 -3.931547,-2.36831 -3.433594,-0.75781 0.994545,3.21634 3.529195,7.76135 5.525391,9.9082 3.485631,3.74872 5.903007,4.55726 15.007812,5.01953 7.465021,0.37901 8.691123,0.63761 10.324219,2.17188 2.361373,2.21831 2.934536,5.14474 1.986328,10.14453 -1.16383,6.13708 -4.423387,12.23995 -11.822266,22.14258 -11.295456,15.11779 -12.023676,16.79062 -13.15625,30.21093 -1.027841,12.1784 -2.171231,15.80196 -8.43164,26.68946 -4.208882,7.31981 -6.449541,12.53016 -10.888672,25.33203 -9.227414,26.61067 -16.692224,39.89157 -27.414062,48.76953 -20.412848,16.90235 -44.805738,13.75037 -55.357418,-7.15235 -4.21595,-8.35173 -4.64395,-11.3201 -5.32422,-36.80859 -0.71033,-26.61041 -1.3146,-30.87209 -6.39844,-45.20508 -3.32712,-9.38033 -4.0512,-12.93134 -6.13867,-30.10351 -2.08812,-17.17773 -5.76089,-26.75499 -12.63086,-32.93164 -4.56998,-4.10884 -9.47271,-5.98584 -18.75391,-7.18164 -19.38818,-2.49801 -31.86811,-9.10974 -36.42773,-19.30079 -3.38223,-7.55954 -2.76157,-20.96666 1.56054,-33.68164 1.2028,-3.53835 2.91432,-8.81888 3.80274,-11.73437 3.10643,-10.19392 12.53267,-20.96226 23.43555,-26.77344 2.4929,-1.32873 7.64411,-3.09377 11.44726,-3.92383 3.80311,-0.83006 10.51845,-2.52276 14.92383,-3.75976 12.7327,-3.57528 17.17942,-2.84546 24.76172,4.0625 4.79104,4.36494 12.74621,8.29733 20.30273,10.03515 5.2839,1.21516 6.35892,1.2468 10.2168,0.30078 4.21221,-1.0327 8.63952,-1.1793 22.47656,-0.74609 8.333862,0.26079 12.227311,-1.29043 18.511721,-7.37305 3.654236,-3.53692 4.001009,-4.12789 3.005859,-5.12304 -0.647357,-0.64732 -4.450802,-1.62088 -8.958984,-2.29492 -8.927586,-1.3349 -11.802746,-2.53231 -12.470706,-5.19336 -0.69509,-2.76957 0.60285,-5.3841 4.71875,-9.5 4.767236,-4.76724 8.458989,-6.5918 17.000002,-8.40821 6.97716,-1.4838 10.5382,-3.25813 10.972657,-5.46484 0.128126,-0.65086 -0.777212,-2.31364 -2.011719,-3.69531 l -2.244141,-2.51172 -6.425781,0.2168 c -5.97634,0.20242 -6.567551,0.0846 -8.490234,-1.69727 -2.025109,-1.8768 -2.111961,-1.88786 -4.328125,-0.60352 -1.243994,0.72094 -3.671192,2.97024 -5.392579,5 -6.97621,8.22598 -8.51318,9.55206 -11.17578,9.63086 -4.89797,0.14514 -6.03398,0.86443 -7.51563,4.76758 -2.56754,6.76392 -6.45798,9.53711 -13.38085,9.53711 -6.23316,0 -12.60662,-1.84385 -18.54883,-5.36523 -7.11821,-4.21837 -10.45805,-5.23047 -17.24805,-5.23047 -7.18125,0 -11.33177,1.25982 -24.90625,7.55859 -12.16407,5.64435 -16.77016,6.45856 -21.85352,3.86524 -7.37272,-3.76128 -10.08845,-12.44471 -5.51953,-17.64844 1.20367,-1.37093 4.73318,-3.9916 7.8418,-5.82422 4.01095,-2.36454 6.06328,-4.12105 7.07227,-6.04883 1.83481,-3.50541 9.33402,-11.43605 14.82031,-15.67383 6.70926,-5.18245 14.95009,-9.28637 21.17187,-10.54492 20.94066,-4.2359 32.06596,-8.99427 45.49024,-19.45117 l 2.84179,-2.21289 -1.46484,-1.86133 c -0.80538,-1.02395 -1.68316,-2.95179 -1.95117,-4.28516 -0.26797,-1.33335 -0.65426,-3.02151 -0.85938,-3.75 -0.89612,-3.18276 -5.58776,-0.66929 -13.9082,7.45118 -6.71845,6.55702 -10.24586,8.63281 -14.67187,8.63281 -3.63761,0 -5.71712,-0.91979 -9.69141,-4.28711 -1.88436,-1.59659 -4.49671,-3.48598 -5.80469,-4.19727 -5.56611,-3.02713 -4.45427,-8.85163 3.14844,-16.48437 7.98127,-8.01287 15.01643,-12.23206 27.29102,-16.36719 17.82764,-6.00587 32.61937,-4.62707 42.082026,3.92188 3.578155,3.23267 6.09961,7.60852 6.09961,10.58789 v 1.99414 l 3.972656,-2.26953 c 11.902261,-6.79791 18.052974,-10.59193 20.320312,-12.53711 l 2.533204,-2.17578 -8.304688,-8.05274 c -47.00523,-45.57934 -106.39388,-73.41671 -173.30273,-81.23437 -6.45865,-0.75464 -19.06541,-1.06785 -31.70118,-0.98047 z m -58.76757,43.91797 c 9.62895,0.19814 15.16427,3.4826 15.1582,9.36132 -0.008,5.87453 -5.71569,10.70181 -16.26953,13.75391 -7.81255,2.25935 -10.54064,3.86699 -19.125,11.26563 -11.08067,9.55012 -15.56054,11.21876 -19.50977,7.26953 -3.509,-3.50895 -1.90285,-12.27223 3.64453,-19.87891 2.06517,-2.83184 2.55956,-4.13448 2.27735,-5.99609 -0.47452,-3.12965 1.61092,-7.42123 4.77929,-9.83789 2.97018,-2.26545 7.56821,-3.53332 18.84961,-5.20118 2.96566,-0.43844 5.71189,-0.68132 8.21485,-0.73437 0.67788,-0.0144 1.33854,-0.0152 1.98047,-0.002 z m 91.43164,6.46484 c 17.65172,0.13702 28.21427,3.83929 28.16015,10.42187 -0.0393,4.80528 -5.68576,13.26229 -14.74219,22.08008 -3.29979,3.21287 -5.69912,6.3654 -6.91601,9.08399 -2.66525,5.95437 -6.41686,9.49992 -11.95508,11.30078 -6.81713,2.21675 -12.96682,3.64291 -19.56055,4.53906 -7.11061,0.96641 -10.14032,2.43879 -18.20507,8.83789 -8.99966,7.14093 -14.59766,9.71034 -21.6836,9.95703 -3.67154,0.12783 -6.53131,-0.18123 -8.05469,-0.86914 -1.29913,-0.58666 -3.23777,-2.21518 -4.30859,-3.61914 -2.96836,-3.89169 -3.5818,-7.99806 -2.65234,-17.76953 1.09912,-11.55548 0.70056,-13.17951 -4.41602,-17.94531 -2.29939,-2.14177 -4.50271,-4.70849 -4.89453,-5.70508 -1.21761,-3.09676 0.55992,-6.43844 6.31055,-11.86328 5.92547,-5.58979 9.04765,-7.22384 24.375,-12.76172 9.63458,-3.48104 9.91855,-3.53343 18.92187,-3.51367 5.02723,0.011 13.90841,-0.48358 19.73633,-1.09766 7.32843,-0.77219 14.00086,-1.12184 19.88477,-1.07617 z m -111.82618,42.35547 c 2.2432,0.0142 2.86263,0.47979 4.49805,2.11523 2.08056,2.08055 2.29688,2.75347 2.29688,7.15821 0,2.67389 0.2181,7.93253 0.48437,11.68554 l 0.48438,6.82227 -2.63086,2.87109 c -2.29493,2.5042 -3.15275,2.91172 -6.72852,3.20508 -3.35966,0.2756 -4.4659,0.0476 -6.13672,-1.27148 -1.44533,-1.14102 -2.18735,-2.59921 -2.54883,-5.00977 -0.4987,-3.32559 -3.00637,-6.39648 -5.22265,-6.39648 -1.76481,0 -4.01903,-3.46197 -4.51563,-6.93164 -0.48068,-3.35875 -0.37011,-3.65549 2.36914,-6.32813 5.84954,-5.70739 9.22914,-7.49367 14.76953,-7.81055 1.20672,-0.069 2.13313,-0.1141 2.88086,-0.10937 z m 165.14844,23.52734 c 1.95303,0.0635 3.85462,1.03431 5.73242,2.91211 2.59578,2.59581 3.25228,5.10753 2.34961,8.99219 -0.35489,1.52773 -0.65416,5.60362 -0.66406,9.05859 -0.0189,6.74761 -1.03575,9.78625 -3.96484,11.83789 -2.51547,1.76189 -7.03133,1.51921 -8.89063,-0.47656 -1.21791,-1.30719 -1.54297,-2.67195 -1.54297,-6.47266 0,-3.57285 -0.42775,-5.55875 -1.65625,-7.69335 -1.58366,-2.75173 -1.61042,-3.11594 -0.62695,-8.32813 0.82946,-4.39598 1.45433,-5.80789 3.22852,-7.30078 2.07872,-1.74912 4.08213,-2.59281 6.03515,-2.5293 z m -15.78906,17.33008 c 3.96624,0 7.19508,5.23138 6.22461,10.08398 -1.53887,7.69405 -8.82679,11.90759 -16.57422,9.58204 -1.17143,-0.35161 -2.61899,-1.04488 -3.2168,-1.54102 -2.3238,-1.92857 -0.74326,-8.44965 3.23828,-13.35547 1.51813,-1.87056 7.79622,-4.76953 10.32813,-4.76953 z m -146.38086,4.71289 c 1.05889,0.0329 1.97986,0.58677 2.17188,1.59375 0.1455,0.76318 1.60257,2.59647 3.23828,4.07422 l 2.97461,2.6875 -0.49805,10.30664 c -0.55877,11.56487 -1.53482,14.54797 -5.83789,17.83008 -3.04808,2.32487 -6.63781,2.51071 -10.35547,0.53516 -3.22866,-1.71573 -6.04297,-5.66911 -6.04297,-8.48829 0,-1.37657 1.12276,-3.41273 3.26953,-5.92773 3.81237,-4.46629 8.41215,-15.53284 7.67578,-18.4668 -0.3016,-1.20149 -0.0181,-2.26748 0.82618,-3.11133 0.6035,-0.6035 1.37244,-0.93502 2.11718,-1.01562 0.15516,-0.0168 0.30967,-0.0223 0.46094,-0.0176 z m 330.671875,245.05469 c 2.951584,0 3.735443,0.38011 6.25,3.02344 1.623987,1.70717 3.08115,4.12345 3.349609,5.55468 0.582766,3.10644 -0.685609,8.17186 -3.083984,12.31641 -2.627187,4.54001 -4.669411,10.05426 -7.232422,19.52734 -3.56485,13.17631 -8.494907,19.69535 -15.615234,20.65039 -2.413304,0.32353 -3.358265,0.0332 -5.353516,-1.64648 -2.091477,-1.75986 -2.419895,-2.52105 -2.412109,-5.56641 0.0076,-1.94033 0.510486,-5.39992 1.125,-7.68945 0.626683,-2.33488 1.123451,-7.48718 1.130859,-11.73242 0.01512,-8.27433 0.871613,-12.47061 3.220703,-15.77539 1.262929,-1.7768 1.968513,-2.10202 4.046875,-1.85938 2.460434,0.28725 2.536159,0.21228 3.304688,-3.37109 1.003389,-4.67841 2.624345,-7.87667 5.560547,-10.9707 1.953411,-2.05837 2.88511,-2.46094 5.708984,-2.46094 z"
         transform="scale(0.26458333)"
         id="path19930" />
      <path
         style="fill:#abc837;stroke-width:0.75687194"
         d="m -337.71875,242.20508 c -2.32911,-0.005 -5.06457,0.22427 -8.29883,0.67773 -14.6753,2.05758 -18.92187,4.43829 -18.92187,10.61328 0,2.65124 -0.65369,4.24492 -3.37696,8.22266 -3.56534,5.20769 -5.45963,10.06595 -4.69726,12.05273 0.61825,1.61107 1.34208,1.50965 4.50781,-0.63867 1.48483,-1.00763 5.52408,-4.27442 8.97656,-7.25781 7.83606,-6.77138 11.16438,-8.73133 18.06836,-10.64453 6.4907,-1.79866 9.47071,-3.21819 12.28321,-5.84961 2.59105,-2.42422 2.617,-3.54743 0.12304,-5.18164 -2.03277,-1.33193 -4.78222,-1.98639 -8.66406,-1.99414 z m 89.51367,6.44922 c -4.2499,-0.0348 -8.2162,0.12336 -10.77344,0.51562 -3.12207,0.47892 -12.14733,1.07612 -20.05664,1.32617 l -14.38086,0.45508 -8.70312,3.19727 c -4.78723,1.75835 -10.91916,4.20803 -13.625,5.44531 -5.33144,2.4379 -13.62305,9.43889 -13.62305,11.50195 0,0.70264 1.57509,2.59408 3.5,4.20313 2.00542,1.67631 4.14418,4.38305 5.00977,6.33984 1.38228,3.12492 1.46606,4.37274 0.96875,14.68555 -0.60125,12.4686 -0.11133,14.97516 3.30469,16.90625 2.99285,1.69186 9.47542,1.01788 14.60156,-1.51758 2.36511,-1.16983 6.96412,-4.30515 10.21875,-6.9668 7.647,-6.25369 12.05906,-8.37324 19.54101,-9.38476 6.83161,-0.92361 16.781,-3.30566 20.77539,-4.97461 3.89175,-1.62609 5.88774,-3.81441 7.26954,-7.97461 0.9538,-2.87182 2.79407,-5.26973 8.31445,-10.82617 6.85667,-6.90139 11.79715,-13.39235 12.80273,-16.82227 0.57143,-1.94909 -0.88845,-2.92752 -6.74218,-4.51953 -3.44708,-0.9375 -11.31918,-1.53182 -18.40235,-1.58984 z m -30.13672,7.46484 c 2.1451,0.0895 4.71108,1.13924 7.60938,3.35156 l 3.41797,2.60938 3.90625,-1.53906 c 8.09847,-3.19213 14.26953,-1.80308 14.26953,3.21289 0,5.68129 -9.36699,17.1192 -19.57617,23.90429 -5.02069,3.33678 -5.07185,3.35504 -6.91407,2.63868 -1.6193,-0.62966 -2.70809,-2.18459 -5.40429,-7.71485 -7.2471,-14.86466 -4.96966,-26.78262 2.6914,-26.46289 z m -202.85742,21.15234 c -2.14707,0.123 -5.03969,2.72823 -10.22851,8.10352 -29.60172,30.66538 -53.68079,70.7289 -67.61133,112.49414 -2.51743,7.54753 -8.74219,30.52434 -8.74219,32.26953 0,1.93848 1.25065,0.36555 2.26953,-2.85351 1.36577,-4.31505 3.94941,-5.70543 7.29297,-3.92383 3.90365,2.08002 8.16707,11.62173 12.01172,26.88672 4.4911,17.83177 7.27214,20.89326 19.89062,21.89453 7.8011,0.61901 11.85952,2.20943 17.13086,6.71289 2.12406,1.81463 6.49209,4.54861 9.70703,6.07422 5.25374,2.49313 6.30267,3.37273 10.35743,8.69922 4.51914,5.93665 8.95015,9.15289 12.61523,9.15429 1.58381,5.7e-4 1.58511,-0.009 0.21484,-3.97461 -0.75499,-2.18547 -1.38728,-6.01601 -1.40429,-8.51367 -0.0427,-6.29544 -2.81603,-11.06762 -8.30274,-14.28906 -5.1665,-3.03345 -6.85351,-6.07595 -6.85351,-12.35938 0,-4.55043 -0.0878,-4.76834 -2.42774,-5.97851 -1.99725,-1.03279 -3.77988,-1.17356 -10.02929,-0.78906 -8.89694,0.54735 -12.77273,-0.17449 -15.47657,-2.88086 -1.6738,-1.67528 -1.95896,-2.61612 -1.9375,-6.4043 0.034,-5.88729 4.80337,-15.7936 10.20704,-21.19727 5.90407,-5.90407 17.04164,-10.64667 24.96289,-10.6289 7.56918,0.0189 12.43364,4.22699 17.74414,15.35547 1.82328,3.82076 4.16715,7.74674 5.20898,8.72265 3.4941,3.27311 6.56445,0.3146 6.56445,-6.32422 0,-5.46561 2.59186,-11.05022 7.85157,-16.91601 3.63322,-4.05181 5.42767,-6.91997 7.58593,-12.12695 5.83306,-14.07277 9.77191,-18.17123 21.99414,-22.88086 8.01978,-3.09026 9.81332,-4.04922 14.97657,-8.01172 5.60462,-4.30124 9.61766,-6.00571 15.71093,-6.67383 8.56498,-0.93915 9.74428,-2.93964 3.78321,-6.41602 -2.78257,-1.62275 -3.44965,-2.43674 -3.64649,-4.45117 -0.30085,-3.07846 0.43397,-3.96354 5.78907,-6.9707 9.02771,-5.06948 14.50976,-10.93831 14.50976,-15.53711 0,-2.92539 -2.41592,-9.41804 -4.69531,-12.61914 -1.90666,-2.67765 -6.79559,-5.04549 -10.44336,-5.05859 -3.94885,-0.014 -9.61409,3.62585 -18.04883,11.59765 -9.76773,9.23166 -15.24434,12.59766 -20.49414,12.59766 -3.57762,0 -4.20819,-0.28172 -7.49219,-3.35352 -2.09408,-1.95877 -5.37377,-4.02413 -7.88281,-4.96289 -5.95381,-2.2276 -8.14453,-4.98615 -8.14453,-10.25781 0,-3.52198 0.33478,-4.46145 2.45898,-6.88086 3.26177,-3.71496 7.0987,-5.30046 17.24219,-7.12695 4.64069,-0.83563 10.51777,-2.36405 13.05859,-3.39649 5.31693,-2.16045 13.07928,-7.0381 15.74415,-9.89258 l 1.82812,-1.95703 -2.60937,-2.18945 c -4.93784,-4.1407 -6.2063,-4.17842 -18.72266,-0.57813 -14.10909,4.05845 -19.31886,4.29712 -24.63477,1.13282 l -3.58203,-2.13086 -5.27148,1.19922 c -8.07999,1.83775 -14.10992,1.58844 -18.85742,-0.77735 -3.35313,-1.67093 -4.30313,-2.64749 -6.16602,-6.33789 -1.7966,-3.55902 -3.11138,-5.38196 -5.00586,-5.27344 z m 362.52344,8.37305 c -0.98175,0.002 -2.02783,0.026 -3.15234,0.0703 -15.96666,0.62971 -33.18626,8.59665 -43.21876,19.99414 -3.54912,4.03205 -3.79904,5.17097 -1.40429,6.42383 0.93664,0.49002 3.13041,2.19324 4.875,3.78516 6.02585,5.49853 9.07731,4.80254 17.90039,-4.07813 5.98458,-6.02365 13.12045,-10.38343 16.99609,-10.38476 2.57496,-7.6e-4 5.34068,3.20376 5.92578,6.86328 0.29859,1.86726 1.40176,4.19653 2.66797,5.63867 4.20537,4.78962 2.89122,7.1384 -8.46679,15.14258 -11.76843,8.29344 -21.57712,12.28753 -39.09375,15.91992 -9.94319,2.0619 -15.06796,4.55381 -23.87891,11.61133 -6.67699,5.34822 -8.11179,6.88167 -12.17188,13.00195 -2.47793,3.73525 -4.13737,5.30258 -7.64843,7.22266 -5.86432,3.207 -8.76172,5.81201 -8.76172,7.87695 0,2.37022 5.37962,7.54688 7.8418,7.54688 2.46867,0 9.81371,-2.74437 16.92187,-6.32422 9.7669,-4.91883 16.03318,-6.61733 24.37891,-6.60742 8.59468,0.0113 11.57497,0.85365 20.01953,5.66601 6.08061,3.46522 11.09237,4.9961 16.35937,4.9961 3.7948,0 6.34405,-2.23196 8.11914,-7.11133 1.67838,-4.61341 4.02028,-6.40837 9.16407,-7.01758 3.05994,-0.36242 4.31376,-0.9076 5.28711,-2.29883 4.32551,-6.1824 7.94097,-9.94946 11.306636,-11.78125 4.617373,-2.51312 6.87744,-2.59653 9.720703,-0.36328 1.83874,1.44426 3.090187,1.70313 8.238281,1.70312 5.097373,0 6.4558,0.27541 8.476562,1.7168 3.413065,2.43447 5.541016,6.2262 5.541016,9.87696 0,4.23029 -3.651285,7.80145 -9.71875,9.5039 -2.410545,0.67635 -4.893906,1.23047 -5.519531,1.23047 -3.691729,0 -9.206155,2.58628 -13.101563,6.14648 -2.31307,2.11405 -4.205078,4.10103 -4.205078,4.41602 0,0.31483 3.530314,1.11953 7.845703,1.78711 4.315389,0.66754 8.769052,1.63472 9.896485,2.14844 2.300069,1.04798 4.207031,4.18369 4.207031,6.91992 0,4.01983 -7.793811,11.60627 -15.251953,14.8457 -4.915502,2.13506 -10.391182,2.58493 -19.011722,1.56446 -6.73315,-0.79703 -8.27872,-0.75598 -11.85351,0.30664 -5.51653,1.63974 -10.66843,1.53789 -17.88672,-0.35157 -7.72811,-2.0231 -15.10495,-5.92302 -20.77735,-10.98437 -5.35215,-4.77566 -8.03415,-5.5101 -14.20117,-3.88672 -2.38246,0.62714 -9.74254,2.53589 -16.35547,4.24023 -6.61288,1.70438 -13.49895,3.96244 -15.30273,5.01953 -8.5392,5.00429 -17.4313,15.75379 -19.68945,23.80079 -0.64793,2.30902 -2.39803,7.94435 -3.88868,12.52343 -2.40918,7.40066 -2.71675,9.24974 -2.77148,16.65039 -0.0695,9.42361 0.74065,11.90277 5.41797,16.58008 5.79553,5.79553 13.18159,8.72019 27.06641,10.7168 10.972,1.57773 15.96301,3.20283 20.83789,6.78125 9.20931,6.76033 13.72396,17.19916 16.21875,37.50195 2.10916,17.16416 2.80097,20.54202 6.12695,29.91797 5.32157,15.0011 6.2645,21.89125 7.09766,51.88086 0.64796,23.32267 1.04947,25.2707 6.91015,33.45508 7.23768,10.10732 18.88265,13.423 31.0957,8.85351 9.76441,-3.65332 18.955284,-11.66108 25.152349,-21.91211 4.637707,-7.67168 8.27409,-16.20471 14.060547,-32.99609 2.582135,-7.49303 6.43247,-16.85982 8.55664,-20.81445 8.934501,-16.63355 8.900327,-16.54489 9.695313,-24.61524 1.855937,-18.84132 3.245452,-22.48529 13.917969,-36.49804 3.565228,-4.68114 7.55651,-10.62587 8.86914,-13.20899 2.70274,-5.31851 3.730252,-11.72351 2.050781,-12.78711 -0.577587,-0.36586 -4.17847,-0.66939 -8.001953,-0.67578 -3.823483,-0.008 -7.910151,-0.37095 -9.082031,-0.81054 -3.621241,-1.35825 -7.484391,-4.40779 -9.96875,-7.86719 -2.620989,-3.64967 -13.499848,-31.14518 -15.498047,-39.17188 -1.619036,-6.50351 -1.590114,-7.9434 0.179688,-8.89062 2.02817,-1.08545 4.062123,0.91418 5.734375,5.63867 2.370444,6.69725 10.406341,21.57062 13.222656,24.47266 4.426507,4.56113 10.578136,5.72564 18.230469,3.45312 5.186494,-1.54019 25.65689,-11.76614 27.3769528,-13.67578 1.4838047,-1.64731 3.6249999,-6.46034 3.625,-8.15039 0,-1.53555 -3.2111191,-3.08314 -8.7050778,-4.19727 -9.495572,-1.92567 -15.520608,-6.12068 -18.347657,-12.77148 -1.553726,-3.65518 -1.524789,-10.44777 0.05664,-13.49414 3.974702,-7.65589 10.927752,-6.23919 26.6191406,5.42383 l 7.4589844,5.54492 5.5410156,-0.11524 c 3.8276784,-0.079 5.5404114,-0.40159 5.5410154,-1.04687 0,-2.21953 -4.0731382,-19.94138 -6.8242185,-29.67578 C -5.7077958,366.33847 -26.17972,328.22966 -54.683594,294.65234 l -6.939453,-8.17382 -2.240234,2.55273 c -3.315477,3.7763 -25.989285,16.96484 -29.166016,16.96484 -0.753751,0 -2.143765,-0.54187 -3.087891,-1.20312 -1.426318,-0.99907 -1.687524,-1.81141 -1.550781,-4.80859 0.192756,-4.22527 -1.433867,-6.99136 -5.947261,-10.11915 -4.5235,-3.13482 -8.18834,-4.23284 -15.06055,-4.2207 z m -237.56055,5.5918 -3.52344,0.0449 c -3.39609,0.0415 -8.94579,2.7522 -8.95898,4.37695 -0.003,0.35063 -0.68694,1.50408 -1.51953,2.5625 -0.83256,1.05843 -1.51367,2.15357 -1.51367,2.4336 0,0.28002 1.38937,1.12171 3.08789,1.87109 3.1237,1.37818 5.98697,4.95903 5.99218,7.49414 0.008,4.09119 3.30091,5.54482 6.13672,2.70899 1.44318,-1.4432 1.53753,-2.06786 0.98828,-6.62305 -0.33335,-2.76608 -0.62594,-7.2434 -0.64843,-9.94922 z m 163.53321,23.61914 c -1.12321,0.046 -1.94375,1.40599 -3,4.50586 -1.10873,3.25414 -1.08657,3.59177 0.43945,6.57422 1.11114,2.17176 1.598,4.49244 1.57226,7.49804 -0.0401,4.67641 0.3546,5.15732 2.38477,2.91407 0.97916,-1.08196 1.25061,-2.53149 1.09766,-5.86524 -0.11188,-2.43568 0.0658,-6.51882 0.39453,-9.07226 0.5551,-4.31179 0.47408,-4.72779 -1.11914,-5.84375 -0.68665,-0.48095 -1.25899,-0.73187 -1.76953,-0.71094 z m -319.3711,13.25976 c 1.49866,-0.0539 3.04154,0.10293 4.47852,0.49024 3.14434,0.84749 9.05233,4.29745 13.44531,7.85156 l 2.56836,2.07813 4.85351,-1.98828 c 24.53828,-10.04847 35.39471,-0.35079 22.23243,19.85742 -4.63631,7.11822 -19.98288,21.82605 -29.33789,28.11718 -4.48785,3.01803 -8.74328,5.44146 -9.45508,5.38477 -0.71184,-0.0567 -2.07627,-0.2525 -3.03321,-0.43555 -4.756,-0.90984 -14.86037,-21.77361 -17.62695,-36.39648 -1.76402,-9.32391 0.62033,-19.43179 5.4336,-23.02539 1.56654,-1.16961 3.94363,-1.84375 6.4414,-1.9336 z m 472.748048,0.58789 c 2.437492,0 3.134308,0.38458 4.445313,2.45899 3.789656,5.99654 -0.794892,24.438 -9.431641,37.93945 -3.319332,5.1889 -5.001184,5.42624 -10.931641,1.54102 -6.052346,-3.96511 -13.832734,-12.17109 -16.21875,-17.10547 -2.168919,-4.48536 -2.701915,-9.39534 -1.302734,-12.00977 1.827591,-3.41494 8.884157,-4.76275 15.132813,-2.89062 2.791483,0.83635 2.896169,0.79264 5.765624,-2.39844 4.135182,-4.59854 9.023145,-7.53515 12.541016,-7.53516 z M -208.51562,332.125 c -0.38458,-0.052 -0.91237,0.20081 -1.86133,0.7207 -3.22156,1.7649 -4.37739,2.86662 -5.71485,5.45508 -1.21357,2.34858 -1.20248,2.41541 0.45118,2.73438 3.00593,0.57976 3.22575,0.55248 4.9375,-0.64649 2.60318,-1.82333 4.16349,-5.32891 3.18554,-7.15625 -0.37396,-0.69881 -0.61347,-1.05541 -0.99804,-1.10742 z m -143.81055,8.87695 c -0.52413,0.11669 -1.42261,2.25577 -2.78516,6.31641 -0.94503,2.81627 -2.85288,6.14067 -4.89844,8.53711 -3.62335,4.24485 -3.70957,5.52709 -0.48828,7.27734 2.81813,1.53122 3.32747,1.42753 5.82422,-1.17773 2.12463,-2.21696 2.24389,-2.71123 2.70703,-11.16406 0.36973,-6.748 0.3145,-9.9391 -0.35937,-9.78907 z m -79.80469,154.34571 c -0.6274,-0.0157 -1.18963,0.008 -1.67187,0.0723 -1.5391,0.20636 -5.09103,1.82319 -7.89454,3.59375 -5.08705,3.21275 -5.10841,3.21727 -10.47265,2.71875 -5.15823,-0.47943 -5.32533,-0.44269 -4.13281,0.875 1.7272,1.90855 3.05974,8.73424 2.4707,12.66211 -0.29065,1.93811 -2.05839,5.8575 -4.32422,9.58789 -4.71182,7.75748 -6.9855,15.83965 -6.5625,23.32617 0.4204,7.43951 4.02951,14.20184 13.55664,25.39453 4.23901,4.9801 8.54311,10.1475 9.56445,11.48243 3.28797,4.29751 18.94953,36.31576 20.19727,41.29101 2.89368,11.53818 5.02853,27.6479 5.73047,43.24805 0.53234,11.83034 1.11449,17.4386 2.24804,21.64453 0.84144,3.12208 1.90368,7.69849 2.35938,10.16992 1.50969,8.1879 7.18837,16.44434 13.07227,19.00391 3.40803,1.48248 4.00613,1.36227 4.90429,-0.98047 1.29555,-3.37943 1.56453,-4.74283 2.4336,-12.29883 1.45277,-12.63073 5.69941,-25.99046 9.70703,-30.53515 1.84785,-2.09553 5.4655,-12.84668 4.61133,-13.70508 -1.2988,-1.30534 -0.85051,-6.46724 0.60937,-7.01758 0.72847,-0.27477 2.93743,-1.7699 4.91016,-3.32227 1.97272,-1.5524 5.43785,-3.87998 7.69922,-5.17382 4.74342,-2.71389 8.54929,-6.72615 9.20507,-9.70313 2.21511,-10.05589 3.67976,-12.05859 13.56836,-18.55469 6.49629,-4.26761 9.45095,-8.45807 12.125,-17.19336 1.08322,-3.53835 2.64478,-8.64771 3.46875,-11.35351 0.82398,-2.70584 3.1563,-7.65729 5.1836,-11.00391 6.13769,-10.13189 7.34006,-17.27506 3.68945,-21.91601 -3.04981,-3.87723 -20.46938,-12.13886 -31.34766,-14.86719 -3.519,-0.8826 -7.87519,-2.58211 -9.67968,-3.77735 -2.96935,-1.96682 -10.36338,-9.67689 -15.87696,-16.55468 -4.35152,-5.42816 -12.31202,-13.06289 -15.12304,-14.50391 -1.59803,-0.81921 -6.70738,-2.28239 -11.35352,-3.25195 -4.64617,-0.96953 -11.17678,-2.96815 -14.51172,-4.44141 -6.34666,-2.80365 -13.97148,-4.80586 -18.36328,-4.91601 z m 294.88086,1.71093 c 4.01452,0.20975 8.73527,2.40021 13.51758,6.53711 l 2.41406,2.08789 5.71094,-2.21679 c 17.093592,-6.63746 25.853027,-0.8588 19.279295,12.7207 -3.964275,8.1891 -15.108875,19.63193 -27.019535,27.74219 -5.9749,4.06847 -9.07934,5.08873 -11.21289,3.68554 -2.55095,-1.67777 -8.94032,-14.17049 -12.08984,-23.64062 -2.03917,-6.13157 -1.97646,-17.51836 0.11914,-21.57031 1.95736,-3.78478 5.26673,-5.55546 9.28125,-5.34571 z m -253.28906,65.06446 c 3.6926,-0.004 8.14519,1.77367 13.02344,5.51757 l 4.45507,3.41993 5.00586,-1.95117 c 13.00521,-5.06801 20.97987,-4.18674 22.78516,2.51757 2.02273,7.51185 -6.6723,20.44772 -22.69727,33.76953 -4.56495,3.79491 -14.36548,10.18515 -15.42382,10.05664 -0.46693,-0.0567 -1.53073,-0.23934 -2.36329,-0.40624 -1.58744,-0.31824 -5.62445,-6.11637 -9.07421,-13.03321 -3.25085,-6.51798 -5.70588,-15.11554 -6.18165,-21.65234 -0.85362,-11.728 3.4212,-18.23059 10.47071,-18.23828 z m 366.140622,19.375 c -1.645077,0 -4.639816,6.18621 -5.560546,11.48828 -0.53367,3.07332 -1.362629,6.32139 -1.841797,7.21679 -1.243389,2.32321 -3.69711,2.90562 -5.472657,1.29883 -0.805303,-0.72877 -1.705725,-1.08529 -2,-0.79101 -0.294425,0.29442 -0.750491,5.20368 -1.015624,10.9082 -0.264945,5.70455 -0.92475,12.12403 -1.464844,14.26563 -0.961172,3.81116 -0.715146,6.32226 0.61914,6.32226 0.367748,0 1.825784,-0.77776 3.240235,-1.73047 3.56175,-2.39909 5.61124,-6.49156 8.679687,-17.33594 1.449714,-5.12356 4.026304,-12.20969 5.726563,-15.74804 1.70022,-3.5384 3.382627,-7.41125 3.738281,-8.60547 1.001121,-3.36144 -1.503719,-7.28906 -4.648438,-7.28906 z"
         transform="scale(0.26458333)"
         id="path19880" />
      <path
         id="path19874"
         style="fill:#ff0066;stroke-width:0.20025571"
         d="m -132.00371,100.97227 c 2.61777,-1.69195 6.03011,-4.860874 7.66582,-7.118982 2.0468,-2.825626 2.02457,-4.481058 -0.0602,-4.481058 -0.99157,0 -3.47515,0.725563 -4.80385,1.403412 -0.43003,0.21939 -0.91724,0.39889 -1.08267,0.39889 -0.16544,0 -0.86576,-0.504112 -1.55628,-1.120249 -1.40912,-1.257337 -1.96579,-1.590431 -2.97403,-1.779576 -3.10415,-0.582344 -3.38919,4.241934 -0.61297,10.374445 0.61255,1.353078 1.76559,3.138928 2.02667,3.138928 0.0744,0 0.70326,-0.36711 1.39749,-0.81581 z m 119.528714,-3.754468 c 0.57059,-0.801309 1.99757,-4.106139 2.34402,-5.428619 0.1606798,-0.61341 0.3002998,-1.642942 0.3102298,-2.28785 0.0345,-2.241017 -0.9745998,-2.228483 -3.1708098,0.03938 -1.00176,1.034461 -1.33188,1.261786 -1.70217,1.172135 -0.25264,-0.06117 -0.81983,-0.205346 -1.26039,-0.320389 -1.43635,-0.375069 -2.70788,0.178947 -2.70149,1.177075 0.008,1.230065 2.41326,4.318991 4.37529,5.618582 1.11059,0.73563 1.30042,0.73875 1.80532,0.02968 z m -21.2983,46.085098 c 4.83143,-3.2649 8.7206,-8.1792 7.46596,-9.43385 -0.54914,-0.54914 -3.0962,-0.0712 -5.17351,0.9708 -0.80481,0.4037 -0.95628,0.35124 -2.09974,-0.72718 -0.88821,-0.8377 -2.14115,-1.47421 -2.9149,-1.48081 -0.2989,-0.003 -0.71856,0.21144 -0.99802,0.50891 -0.6893,0.73372 -0.78368,2.87026 -0.21791,4.93248 0.70163,2.55753 2.31613,5.76853 2.90042,5.76853 0.13213,0 0.5991,-0.24249 1.0377,-0.53888 z m -66.513094,17.55577 c 2.400554,-1.52238 5.734984,-4.75577 6.918914,-6.70924 0.38127,-0.62909 0.70761,-1.4785 0.76556,-1.99261 0.0948,-0.84117 0.0657,-0.90963 -0.47521,-1.11701 -0.72561,-0.27819 -2.19853,-0.007 -3.93666,0.72491 -1.98289,0.83493 -2.04397,0.83365 -3.016884,-0.0632 -3.46843,-3.19708 -5.57995,-1.91569 -4.72462,2.86718 0.48398,2.70634 2.4663,6.89553 3.26296,6.89553 0.13804,0 0.68072,-0.27252 1.20594,-0.60561 z m 28.686344,-85.321397 c 2.20839,-1.519408 4.56025,-4.135745 4.80136,-5.341289 0.18364,-0.91821 -0.3013,-1.180545 -1.58464,-0.857218 -0.57149,0.14398 -1.37222,0.429338 -1.77941,0.63413 l -0.74033,0.372345 -0.90346,-0.781936 c -1.78887,-1.548257 -2.92265,-1.210528 -2.92265,0.870599 0,1.522785 0.96072,4.363109 1.85057,5.47113 0.26836,0.334155 0.25118,0.339095 1.27856,-0.367761 z" />
      <g
         aria-label="World of Hearts"
         style="font-style:normal;font-variant:normal;font-weight:normal;font-stretch:normal;font-size:29.59787941px;line-height:1.25;font-family:'KL Lovemug';-inkscape-font-specification:'KL Lovemug, Normal';font-variant-ligatures:normal;font-variant-caps:normal;font-variant-numeric:normal;font-feature-settings:normal;text-align:start;letter-spacing:0px;word-spacing:0px;writing-mode:lr-tb;text-anchor:start;fill:#000000;fill-opacity:1;stroke:none;stroke-width:0.73994696"
         id="text19940"
         transform="translate(-6.8035713,-10.583333)">
        <path
           d="m -133.76033,260.2033 c 0.0888,0.0592 0.20718,0.0888 0.23678,0.0888 0.14799,0 0.73995,-0.35517 0.79914,-0.47356 0.0296,-0.0888 0.0296,-0.56236 0.0296,-1.09513 0,-0.53276 0.0888,-1.86466 0.17759,-2.93019 0.0888,-1.09512 0.26638,-3.90692 0.38477,-6.24515 0.26638,-5.41641 0.50317,-8.99775 0.76955,-11.86875 0.11839,-1.27271 0.26638,-2.93019 0.32557,-3.75893 0.0296,-0.79914 0.0888,-1.47989 0.11839,-1.47989 0.0296,-0.0296 0.0296,0.0296 0.0296,0.11839 0,0.17759 0.20719,2.60461 0.41437,4.97244 0.0592,0.85834 0.26638,2.90059 0.41437,4.52848 0.17759,1.62788 0.32558,3.67014 0.38478,4.55807 0.17758,3.28537 0.35517,5.29802 0.71034,8.93856 0.1184,1.50949 0.26639,3.07818 0.32558,3.52215 0.0592,0.73995 0.0888,0.82874 0.29598,1.00633 0.11839,0.11839 0.29598,0.20718 0.35517,0.20718 0.23679,0 0.53277,-0.17759 0.65116,-0.32557 0.0888,-0.17759 0.14799,-0.73995 0.47356,-4.35089 0.0592,-0.85834 0.20719,-2.27904 0.29598,-3.13738 l 0.29598,-3.28536 c 0.0592,-0.91754 0.20719,-2.42703 0.29598,-3.34456 0.0888,-0.91754 0.23678,-2.60462 0.35517,-3.75893 0.23679,-2.72301 0.50317,-5.12044 1.03593,-8.84977 0.44397,-3.19657 0.68075,-5.15003 0.68075,-5.77159 0,-0.65115 -0.62155,-0.97673 -1.00633,-0.53276 -0.14799,0.17759 -0.20718,0.41437 -0.32557,1.56869 -0.0592,0.73995 -0.32558,2.723 -0.56236,4.41008 -0.53276,3.84773 -0.79915,6.09717 -1.06553,9.26414 -0.14799,1.3911 -0.29598,3.25577 -0.41437,4.1733 -0.0888,0.91754 -0.20718,2.21984 -0.23678,2.8414 -0.11839,1.68708 -0.38477,3.96611 -0.41437,3.93652 -0.0592,-0.0592 -0.32558,-3.58135 -0.41437,-5.06124 -0.0888,-1.77587 -0.20719,-3.34456 -0.41437,-5.5644 -0.41437,-3.99572 -0.50316,-4.97245 -0.71035,-7.69545 -0.17759,-2.30864 -0.41437,-4.43968 -0.59196,-5.17963 -0.0296,-0.0888 -0.11839,-0.73995 -0.20718,-1.4207 -0.14799,-1.15432 -0.17759,-1.27271 -0.41437,-1.4503 -0.26638,-0.23678 -0.56236,-0.20718 -0.85834,0.0888 -0.26638,0.26638 -0.38477,1.3911 -0.68075,5.71239 -0.11839,1.89426 -0.26638,4.1733 -0.38477,5.06124 -0.0888,0.91753 -0.20719,2.33823 -0.23679,3.19657 -0.0592,0.85834 -0.14799,2.01265 -0.17759,2.60461 -0.0592,0.59196 -0.17758,3.01898 -0.29597,5.38681 -0.35518,6.68913 -0.35518,6.68913 -0.59196,4.91325 -0.65115,-4.46928 -0.94713,-6.77791 -1.15432,-9.20494 -0.32558,-4.29169 -0.65115,-6.9259 -1.09512,-9.29373 -0.14799,-0.71035 -0.26638,-1.65748 -0.29598,-2.63421 -0.14799,-2.63421 -0.41437,-5.26843 -0.59196,-5.71239 -0.0888,-0.23679 -0.50316,-0.38478 -0.76954,-0.29598 -0.41437,0.14799 -0.47357,0.41437 -0.32558,1.12472 0.14799,0.82874 0.26638,2.01265 0.38477,4.23249 0.0592,1.33191 0.17759,2.27904 0.38478,3.55175 0.53276,3.04858 0.76954,4.91325 1.03592,8.46499 0.14799,2.07185 0.47357,5.06124 0.71035,6.54113 l 0.26638,1.92387 c 0.11839,0.91753 0.97673,6.21555 1.15432,7.01469 0.0888,0.53277 0.17759,0.68075 0.44397,0.76955 z"
           style="font-style:normal;font-variant:normal;font-weight:normal;font-stretch:normal;font-size:29.59787941px;font-family:'KL Lovemug';-inkscape-font-specification:'KL Lovemug, Normal';font-variant-ligatures:normal;font-variant-caps:normal;font-variant-numeric:normal;font-feature-settings:normal;text-align:start;writing-mode:lr-tb;text-anchor:start;stroke-width:0.73994696"
           id="path19942" />
        <path
           d="m -117.98096,259.87772 c 0.85834,0.29598 1.53909,0.0888 2.24944,-0.65115 1.24311,-1.27271 1.62788,-3.16697 1.83507,-8.96816 0.0888,-1.80547 0.17758,-4.46928 0.23678,-5.88998 0.20718,-4.85405 0.0592,-11.63196 -0.26638,-13.76301 -0.17759,-1.15432 -1.33191,-2.98939 -2.24944,-3.64054 -0.53276,-0.38477 -0.88794,-0.50316 -1.56869,-0.50316 -0.97673,0 -1.56869,0.53276 -2.01265,1.77587 -0.88794,2.39743 -1.06553,3.72933 -1.24312,8.49459 -0.17758,4.88365 -0.11839,9.32333 0.14799,14.11819 0.26638,4.38048 0.50317,5.88998 1.12472,7.19228 0.41437,0.79915 1.18392,1.62789 1.74628,1.83507 z m 0.73994,-1.15432 c -0.73994,0 -1.3911,-0.94713 -1.80547,-2.51582 -0.32557,-1.3319 -0.59195,-4.70606 -0.73994,-9.41212 -0.0296,-1.59829 -0.0888,-3.25577 -0.11839,-3.69974 -0.0592,-0.71034 -0.0296,-2.10145 0.20718,-7.93223 0.14799,-3.04858 0.26638,-4.02531 0.88794,-5.83078 0.38477,-1.21351 0.59195,-1.53909 0.88793,-1.62788 0.32558,-0.0888 0.85834,0.0888 1.21352,0.41437 0.38477,0.35517 1.06552,1.3615 1.3319,2.01265 0.26638,0.62156 0.35518,1.62789 0.50317,5.06124 0.11839,2.48622 0.0888,6.54113 -0.0888,10.71443 -0.0296,1.24311 -0.11839,3.34456 -0.17759,4.64687 -0.17758,4.88365 -0.53276,6.71872 -1.42069,7.75464 -0.32558,0.32558 -0.44397,0.41437 -0.68076,0.41437 z"
           style="font-style:normal;font-variant:normal;font-weight:normal;font-stretch:normal;font-size:29.59787941px;font-family:'KL Lovemug';-inkscape-font-specification:'KL Lovemug, Normal';font-variant-ligatures:normal;font-variant-caps:normal;font-variant-numeric:normal;font-feature-settings:normal;text-align:start;writing-mode:lr-tb;text-anchor:start;stroke-width:0.73994696"
           id="path19944" />
        <path
           d="m -110.06029,260.1145 c 0.26638,0.0888 0.35517,0.0888 0.59196,-0.11839 l 0.23678,-0.20718 -0.0888,-3.04858 c -0.23679,-8.3762 -0.29598,-18.29149 -0.0888,-22.96796 l 0.0592,-1.68708 0.35517,-0.79914 c 0.47357,-1.06552 1.21351,-2.16064 1.68708,-2.54542 0.23678,-0.14799 0.71035,-0.41437 1.06552,-0.56236 0.68076,-0.29598 1.30231,-0.35517 2.13105,-0.20718 0.29598,0.0592 0.38477,0.0296 0.53276,-0.11839 0.23679,-0.23679 0.23679,-0.65116 0,-0.85834 -0.0888,-0.11839 -0.38477,-0.23679 -0.59195,-0.32558 -0.38478,-0.11839 -0.53277,-0.11839 -1.15432,-0.0296 -0.79914,0.11839 -1.74628,0.44397 -2.36783,0.85834 -0.38477,0.26638 -1.03593,0.88794 -1.4207,1.4207 l -0.20718,0.26638 v -1.3319 c 0,-1.27271 0,-1.30231 -0.20719,-1.5095 -0.26638,-0.26638 -0.47357,-0.26638 -0.76954,-0.0592 l -0.20719,0.17759 -0.0592,2.60461 c -0.0296,1.4207 -0.0888,3.16697 -0.0888,3.84772 -0.11839,4.2029 -0.14799,13.9702 -0.0592,17.93632 0.20719,9.50092 0.17759,9.05695 0.65116,9.26413 z"
           style="font-style:normal;font-variant:normal;font-weight:normal;font-stretch:normal;font-size:29.59787941px;font-family:'KL Lovemug';-inkscape-font-specification:'KL Lovemug, Normal';font-variant-ligatures:normal;font-variant-caps:normal;font-variant-numeric:normal;font-feature-settings:normal;text-align:start;writing-mode:lr-tb;text-anchor:start;stroke-width:0.73994696"
           id="path19946" />
        <path
           d="m -100.182,259.67054 c 0.17759,0.20718 0.651151,0.20718 0.858337,0.0296 0.147989,-0.11839 0.147989,-0.29597 0.147989,-1.3911 0,-0.71034 -0.0296,-2.6934 -0.08879,-4.46928 -0.08879,-2.51582 -0.08879,-3.90692 0,-6.57072 0.0592,-1.86467 0.14799,-4.55808 0.177588,-5.97878 0.05919,-1.3911 0.118391,-3.13737 0.177587,-3.81812 0.0592,-0.88794 0.0592,-2.04226 0,-3.96612 -0.0592,-1.47989 -0.118392,-3.67014 -0.147989,-4.82445 -0.0592,-2.13105 -0.0592,-2.16065 -0.266381,-2.30864 -0.295979,-0.23678 -0.680751,-0.17758 -0.887941,0.0888 -0.14799,0.20718 -0.14799,0.44396 -0.0296,4.91324 0.11839,3.78853 0.11839,5.12044 0.0592,6.92591 -0.35518,7.78424 -0.47357,12.37191 -0.35518,14.47336 l 0.1184,4.2621 c 0.0592,2.24943 0.0888,2.51582 0.23678,2.63421 z"
           style="font-style:normal;font-variant:normal;font-weight:normal;font-stretch:normal;font-size:29.59787941px;font-family:'KL Lovemug';-inkscape-font-specification:'KL Lovemug, Normal';font-variant-ligatures:normal;font-variant-caps:normal;font-variant-numeric:normal;font-feature-settings:normal;text-align:start;writing-mode:lr-tb;text-anchor:start;stroke-width:0.73994696"
           id="path19948" />
        <path
           d="m -89.753374,260.41048 c 0.207185,0.14799 0.651154,0.14799 0.828741,-0.0296 0.147989,-0.1184 0.147989,-0.32558 0.08879,-3.07818 -0.0592,-3.22617 0.08879,-10.53685 0.295978,-15.21331 0.207185,-4.52848 0.295979,-9.32334 0.207185,-11.39519 -0.05919,-1.03592 -0.08879,-2.36783 -0.08879,-2.98938 0,-1.03593 -0.0296,-1.18392 -0.177587,-1.33191 -0.325577,-0.32557 -1.035926,-0.11839 -1.035926,0.32558 l 0.0592,4.29169 0.05919,4.11411 -0.503164,-0.50317 c -1.539089,-1.56868 -3.018983,-1.71667 -4.173301,-0.41437 -0.97673,1.12472 -1.3911,3.64054 -1.627883,10.56645 -0.0592,1.3615 -0.118392,2.95978 -0.177587,3.52214 -0.118392,1.4207 -0.08879,7.10349 0,7.90264 0.295979,2.07185 0.97673,3.43335 1.894264,3.81812 0.384772,0.14799 1.243111,0.14799 1.716677,-0.0296 0.503164,-0.17759 1.095122,-0.59196 1.746275,-1.24312 l 0.591957,-0.59195 v 0.47356 c 0,0.97673 0.118392,1.68708 0.295979,1.80547 z m -2.93019,-1.68708 c -0.177587,0.0888 -0.473566,0.17759 -0.621555,0.17759 -0.56236,0 -1.006328,-0.73995 -1.361503,-2.27903 -0.207185,-0.94714 -0.266381,-5.44601 -0.08879,-8.22822 0.0592,-1.21351 0.147989,-2.93019 0.177587,-3.87732 0.0592,-1.95346 0.266381,-5.20922 0.384772,-6.30435 0.207186,-1.74627 0.710349,-3.16697 1.243111,-3.49255 0.414371,-0.26638 0.739947,-0.20718 1.302307,0.14799 0.532762,0.35518 1.509492,1.3911 1.835069,1.95346 0.207185,0.38478 0.236783,1.03593 0.08879,3.49255 -0.08879,1.53909 -0.177587,4.76526 -0.325577,11.57277 -0.0592,2.07186 -0.118391,3.90692 -0.147989,4.08451 -0.08879,0.62156 -1.716677,2.42703 -2.486222,2.7526 z"
           style="font-style:normal;font-variant:normal;font-weight:normal;font-stretch:normal;font-size:29.59787941px;font-family:'KL Lovemug';-inkscape-font-specification:'KL Lovemug, Normal';font-variant-ligatures:normal;font-variant-caps:normal;font-variant-numeric:normal;font-feature-settings:normal;text-align:start;writing-mode:lr-tb;text-anchor:start;stroke-width:0.73994696"
           id="path19950" />
        <path
           d="m -76.012094,259.87772 c 0.858339,0.29598 1.53909,0.0888 2.249439,-0.65115 1.243111,-1.27271 1.627883,-3.16697 1.835069,-8.96816 0.08879,-1.80547 0.177587,-4.46928 0.236783,-5.88998 0.207185,-4.85405 0.0592,-11.63196 -0.266381,-13.76301 -0.177588,-1.15432 -1.331905,-2.98939 -2.249439,-3.64054 -0.532762,-0.38477 -0.887936,-0.50316 -1.568688,-0.50316 -0.97673,0 -1.568687,0.53276 -2.012656,1.77587 -0.887936,2.39743 -1.065523,3.72933 -1.24311,8.49459 -0.177588,4.88365 -0.118392,9.32333 0.147989,14.11819 0.266381,4.38048 0.503164,5.88998 1.124719,7.19228 0.414371,0.79915 1.183916,1.62789 1.746275,1.83507 z m 0.739947,-1.15432 c -0.739947,0 -1.3911,-0.94713 -1.80547,-2.51582 -0.325577,-1.3319 -0.591958,-4.70606 -0.739947,-9.41212 -0.0296,-1.59829 -0.08879,-3.25577 -0.118392,-3.69974 -0.0592,-0.71034 -0.0296,-2.10145 0.207185,-7.93223 0.14799,-3.04858 0.266381,-4.02531 0.887937,-5.83078 0.384772,-1.21351 0.591957,-1.53909 0.887936,-1.62788 0.325577,-0.0888 0.858339,0.0888 1.213513,0.41437 0.384772,0.35517 1.065524,1.3615 1.331905,2.01265 0.266381,0.62156 0.355174,1.62789 0.503164,5.06124 0.118391,2.48622 0.08879,6.54113 -0.08879,10.71443 -0.0296,1.24311 -0.118392,3.34456 -0.177587,4.64687 -0.177588,4.88365 -0.532762,6.71872 -1.420699,7.75464 -0.325576,0.32558 -0.443968,0.41437 -0.680751,0.41437 z"
           style="font-style:normal;font-variant:normal;font-weight:normal;font-stretch:normal;font-size:29.59787941px;font-family:'KL Lovemug';-inkscape-font-specification:'KL Lovemug, Normal';font-variant-ligatures:normal;font-variant-caps:normal;font-variant-numeric:normal;font-feature-settings:normal;text-align:start;writing-mode:lr-tb;text-anchor:start;stroke-width:0.73994696"
           id="path19952" />
        <path
           d="m -68.180215,259.78893 0.236783,0.20718 c 0.295979,0.23679 0.503164,0.23679 0.769545,0 l 0.236783,-0.20718 -0.08879,-3.13738 c -0.236783,-7.75464 -0.266381,-9.53051 -0.325577,-12.63829 l -0.0296,-3.34456 1.183916,0.0592 c 1.361502,0.0592 1.746275,-0.0296 1.894264,-0.38477 0.147989,-0.29598 0.118391,-0.41437 -0.0592,-0.65115 -0.147989,-0.17759 -0.207185,-0.20719 -1.598285,-0.23679 l -1.450296,-0.0296 -0.08879,-1.21352 c -0.0296,-0.68075 -0.0296,-2.54541 -0.0296,-4.1733 0.0296,-3.22617 0.0592,-3.34456 0.621556,-4.97244 0.295978,-0.88794 0.532761,-1.21351 0.947132,-1.3911 0.443968,-0.20719 0.769545,-0.20719 1.213513,-0.0296 0.443968,0.20719 0.680751,0.47357 0.917534,1.06552 0.355175,0.73995 0.473566,1.36151 0.621555,2.871 0.207186,2.07185 0.207186,2.13105 0.355175,2.30863 0.207185,0.20719 0.680751,0.17759 0.887936,-0.0296 0.207186,-0.23679 0.207186,-0.1184 0,-2.21985 -0.266381,-2.723 -0.621555,-3.72933 -1.539089,-4.61726 -0.651154,-0.59196 -1.213513,-0.76955 -2.071852,-0.71035 -0.917534,0.0592 -1.657481,0.53276 -2.131047,1.3615 -0.236783,0.44397 -0.769545,2.07185 -0.917534,3.01898 -0.236784,1.21352 -0.207186,5.44601 0.0296,12.37192 0.0592,1.21351 0.08879,3.13737 0.08879,4.26209 0,1.12472 0.0592,3.19657 0.08879,4.55807 0.0592,1.36151 0.118391,3.69974 0.147989,5.17963 z"
           style="font-style:normal;font-variant:normal;font-weight:normal;font-stretch:normal;font-size:29.59787941px;font-family:'KL Lovemug';-inkscape-font-specification:'KL Lovemug, Normal';font-variant-ligatures:normal;font-variant-caps:normal;font-variant-numeric:normal;font-feature-settings:normal;text-align:start;writing-mode:lr-tb;text-anchor:start;stroke-width:0.73994696"
           id="path19954" />
        <path
           d="m -51.370932,260.26249 c 0.236783,0.23679 0.355175,0.23679 0.680752,0.1184 0.41437,-0.14799 0.443968,-0.38478 0.384772,-3.19658 l -0.0296,-2.63421 1.894264,-0.0888 2.811799,-0.14799 0.917534,-0.0592 0.0592,0.32558 c 0.08879,0.47357 0.207185,3.49255 0.236783,4.64687 0,0.73995 0.0296,0.94713 0.118392,1.09512 0.207185,0.20719 0.680751,0.20719 0.917534,-0.0296 0.177587,-0.17759 0.177587,-0.23678 0.118391,-2.42702 -0.0296,-1.24311 -0.08879,-2.75261 -0.118391,-3.37416 -0.56236,-6.92591 -0.739947,-17.43315 -0.414371,-22.22801 0.118392,-1.59829 0.14799,-2.48622 0.08879,-3.67014 -0.0592,-1.45029 -0.0592,-1.53909 -0.266381,-1.71667 -0.236783,-0.26638 -0.56236,-0.26638 -0.799143,-0.0296 -0.177587,0.14799 -0.177587,0.26638 -0.177587,2.33823 0,1.18392 -0.0296,2.60461 -0.08879,3.16697 -0.0296,0.53277 -0.118392,2.39743 -0.177588,4.1733 -0.08879,3.78853 0.0592,9.50092 0.414371,15.68688 l 0.05919,0.82874 -1.065523,0.0592 c -0.591958,0.0296 -1.864667,0.0888 -2.870995,0.11839 l -1.775872,0.0592 v -2.7822 c 0,-1.53909 0.0296,-4.61727 0.08879,-6.83711 0.0296,-2.21984 0.08879,-6.9259 0.08879,-10.44805 l 0.0296,-6.39314 -0.236783,-0.20718 c -0.177588,-0.17759 -0.295979,-0.20719 -0.473566,-0.17759 -0.532762,0.14799 -0.503164,-0.20719 -0.503164,6.74831 -0.0296,3.49255 -0.0592,6.77792 -0.08879,7.34028 -0.08879,1.65748 -0.177587,7.72505 -0.147989,10.30006 v 2.42703 l -0.207185,0.0296 c -0.651154,0.14799 -0.947133,0.59196 -0.621556,0.97673 0.118392,0.17759 0.236783,0.23679 0.532762,0.26639 l 0.41437,0.0296 0.0592,1.65748 c 0.0296,0.91754 0.0296,2.16065 0,2.75261 -0.0592,1.06552 -0.0592,1.06552 0.147989,1.3023 z"
           style="font-style:normal;font-variant:normal;font-weight:normal;font-stretch:normal;font-size:29.59787941px;font-family:'KL Lovemug';-inkscape-font-specification:'KL Lovemug, Normal';font-variant-ligatures:normal;font-variant-caps:normal;font-variant-numeric:normal;font-feature-settings:normal;text-align:start;writing-mode:lr-tb;text-anchor:start;stroke-width:0.73994696"
           id="path19956" />
        <path
           d="m -37.398884,260.1441 c 0.14799,0.0592 0.414371,0.11839 0.591958,0.11839 0.97673,0 1.775873,-0.97673 2.249439,-2.84139 0.236783,-0.91754 0.651153,-4.08451 0.917534,-7.22188 l 0.295979,-3.34457 c 0.118391,-1.3023 0.177587,-2.36783 0.384772,-6.57072 l 0.118392,-2.04226 -0.207185,-0.20718 c -0.236783,-0.26638 -0.591958,-0.26638 -0.858339,-0.0592 -0.207185,0.14799 -0.236783,0.71035 -0.443968,5.12043 -0.0296,1.15432 -0.118391,2.42703 -0.147989,2.9006 -0.0592,0.44396 -0.177588,1.74627 -0.266381,2.87099 -0.236783,2.93019 -0.651154,6.57073 -0.858339,7.60666 -0.207185,1.06552 -0.591957,2.04225 -0.947132,2.36783 -0.236783,0.23678 -0.236783,0.23678 -0.41437,0.0888 -0.295979,-0.23678 -0.769545,-1.12472 -0.97673,-1.74628 -0.295979,-1.00632 -0.651154,-4.43968 -0.769545,-7.87303 -0.08879,-2.42703 -0.207185,-4.32129 -0.325577,-5.44601 -0.118391,-0.85834 -0.236783,-8.02103 -0.147989,-8.99776 l 0.0592,-0.73994 h 0.325576 c 0.177588,0 0.651154,-0.0592 1.035926,-0.11839 0.41437,-0.0888 1.420698,-0.14799 2.249439,-0.17759 0.82874,-0.0296 1.598285,-0.0888 1.687079,-0.11839 0.41437,-0.0592 0.473566,-0.38478 0.473566,-2.57502 0,-3.07818 -0.207185,-3.84772 -1.154317,-4.58767 -0.769545,-0.62156 -1.835069,-0.76955 -2.663809,-0.35517 -0.503164,0.23678 -1.391101,1.12471 -1.805471,1.83506 -0.532762,0.88794 -0.97673,2.51582 -1.272709,4.94285 -0.207185,1.3615 -0.177587,9.97448 0.0296,11.72076 0.08879,0.73995 0.177587,2.42703 0.236783,3.75893 0.118392,3.55175 0.443968,7.25148 0.739947,8.61298 0.147989,0.76955 0.355175,1.27271 0.828741,2.01266 0.41437,0.59196 0.651153,0.85834 1.035925,1.06552 z m -0.384772,-27.40763 c -1.183915,0.20718 -1.183915,0.20718 -1.183915,-0.0296 0,-0.41437 0.41437,-2.54542 0.621555,-3.07818 0.384773,-1.09512 1.065524,-1.98306 1.746275,-2.30864 0.41437,-0.20718 0.651154,-0.17758 1.183915,0.1184 0.651154,0.35517 0.828741,1.09512 0.828741,3.58134 v 1.53909 l -1.3911,0.0592 c -0.739947,0.0296 -1.568688,0.0888 -1.805471,0.1184 z"
           style="font-style:normal;font-variant:normal;font-weight:normal;font-stretch:normal;font-size:29.59787941px;font-family:'KL Lovemug';-inkscape-font-specification:'KL Lovemug, Normal';font-variant-ligatures:normal;font-variant-caps:normal;font-variant-numeric:normal;font-feature-settings:normal;text-align:start;writing-mode:lr-tb;text-anchor:start;stroke-width:0.73994696"
           id="path19958" />
        <path
           d="m -26.519815,260.52888 c 0.443968,0.0888 0.858338,0.0296 1.272709,-0.14799 0.295978,-0.14799 1.272708,-1.06553 1.598285,-1.53909 l 0.207185,-0.23679 v 0.71035 c 0,0.62156 0.0296,0.73995 0.207185,0.91754 0.266381,0.26638 0.56236,0.26638 0.828741,0.0592 l 0.207185,-0.17759 0.0592,-3.67013 c 0.08879,-5.77159 0.08879,-16.42683 0,-18.2323 -0.0592,-0.91753 -0.118392,-3.25576 -0.147989,-5.20922 -0.0592,-5.6236 -0.118392,-6.51154 -0.295979,-6.71872 -0.207185,-0.20719 -0.651154,-0.20719 -0.858339,-0.0296 -0.118391,0.11839 -0.177587,0.26638 -0.177587,0.65115 0,0.26639 -0.0296,0.50317 -0.0592,0.50317 0,0 -0.266381,-0.11839 -0.532762,-0.29598 -1.183915,-0.71035 -2.249438,-0.56236 -3.285364,0.53276 -0.828741,0.88794 -1.12472,1.53909 -1.479894,3.37416 -0.443968,2.30863 -0.739947,6.39314 -1.006328,13.85181 -0.0592,1.95346 0,5.09083 0.118391,5.94917 0.0296,0.14799 0.08879,0.94713 0.14799,1.74628 0.207185,3.16697 0.710349,5.5348 1.450296,6.62992 0.266381,0.38477 0.917534,1.00633 1.213513,1.15432 0.08879,0.0592 0.355175,0.14799 0.532762,0.17759 z m 1.035926,-1.4799 c -0.414371,0.32558 -0.710349,0.35518 -1.095122,0.11839 -1.006328,-0.62155 -1.627883,-2.723 -1.894264,-6.60032 -0.08879,-1.03593 -0.177587,-2.33824 -0.207185,-2.871 -0.118392,-1.30231 -0.118392,-4.58767 0,-6.33394 l 0.177587,-3.61095 c 0.207185,-5.38681 0.651153,-8.93856 1.243111,-10.24086 0.41437,-0.94713 1.124719,-1.59829 1.716677,-1.56869 0.591957,0 1.864666,1.06552 1.95346,1.65748 0.0296,0.14799 0.08879,2.01266 0.118391,4.1437 0.0296,2.13105 0.08879,4.55808 0.118392,5.41642 0.08879,1.86466 0.08879,12.37191 0,14.85813 l -0.0592,1.80547 -0.443968,0.85834 c -0.56236,1.12472 -1.183915,2.01266 -1.627883,2.36783 z"
           style="font-style:normal;font-variant:normal;font-weight:normal;font-stretch:normal;font-size:29.59787941px;font-family:'KL Lovemug';-inkscape-font-specification:'KL Lovemug, Normal';font-variant-ligatures:normal;font-variant-caps:normal;font-variant-numeric:normal;font-feature-settings:normal;text-align:start;writing-mode:lr-tb;text-anchor:start;stroke-width:0.73994696"
           id="path19960" />
        <path
           d="m -18.549658,260.1145 c 0.266381,0.0888 0.355174,0.0888 0.591957,-0.11839 l 0.236783,-0.20718 -0.08879,-3.04858 c -0.236783,-8.3762 -0.295979,-18.29149 -0.08879,-22.96796 l 0.0592,-1.68708 0.355174,-0.79914 c 0.473566,-1.06552 1.213513,-2.16064 1.687079,-2.54542 0.236783,-0.14799 0.71035,-0.41437 1.065524,-0.56236 0.680751,-0.29598 1.302307,-0.35517 2.131047,-0.20718 0.295979,0.0592 0.384773,0.0296 0.532762,-0.11839 0.236783,-0.23679 0.236783,-0.65116 0,-0.85834 -0.08879,-0.11839 -0.384772,-0.23679 -0.591957,-0.32558 -0.384773,-0.11839 -0.532762,-0.11839 -1.154318,-0.0296 -0.799142,0.11839 -1.746275,0.44397 -2.36783,0.85834 -0.384772,0.26638 -1.035926,0.88794 -1.420698,1.4207 l -0.207185,0.26638 v -1.3319 c 0,-1.27271 0,-1.30231 -0.207186,-1.5095 -0.26638,-0.26638 -0.473566,-0.26638 -0.769544,-0.0592 l -0.207186,0.17759 -0.05919,2.60461 c -0.0296,1.4207 -0.08879,3.16697 -0.08879,3.84772 -0.118391,4.2029 -0.147989,13.9702 -0.0592,17.93632 0.207185,9.50092 0.177588,9.05695 0.651154,9.26413 z"
           style="font-style:normal;font-variant:normal;font-weight:normal;font-stretch:normal;font-size:29.59787941px;font-family:'KL Lovemug';-inkscape-font-specification:'KL Lovemug, Normal';font-variant-ligatures:normal;font-variant-caps:normal;font-variant-numeric:normal;font-feature-settings:normal;text-align:start;writing-mode:lr-tb;text-anchor:start;stroke-width:0.73994696"
           id="path19962" />
        <path
           d="m -8.9557843,260.1737 c 0.2071852,0.23678 0.6807512,0.23678 0.8879364,0.0296 0.1183915,-0.14799 0.1479894,-0.38477 0.1479894,-2.01266 0,-1.00633 -0.029598,-2.48622 -0.059196,-3.28536 l -0.059196,-1.4503 0.7103491,0.0592 c 2.2198409,0.14799 2.3086346,0.14799 2.5158197,0.0296 0.1183915,-0.0888 0.2367831,-0.23679 0.2663809,-0.32558 0.088794,-0.26638 -0.1183915,-0.68075 -0.3255766,-0.71035 -0.3255767,-0.0592 -2.0422537,-0.26638 -2.6342113,-0.29598 l -0.5327618,-0.0296 0.059196,-2.60461 c 0.029598,-1.4207 0.059196,-5.09084 0.059196,-8.13942 0,-3.04858 0.029598,-6.8963 0.088794,-8.55378 0.088794,-3.01899 0,-5.41642 -0.2071851,-6.18596 -0.1479894,-0.53276 -0.6215555,-0.65115 -0.9767301,-0.26638 -0.2071851,0.20718 -0.236783,0.26638 -0.1775872,0.79914 0.1775872,1.53909 0.2071851,3.01898 0.1183915,4.91325 -0.029598,1.09512 -0.088794,5.65319 -0.088794,10.09288 -0.029598,4.46928 -0.088794,8.52418 -0.1183915,9.05695 -0.059196,0.91753 -0.059196,0.97673 -0.236783,0.97673 -0.2663809,0 -2.1606451,0.38477 -2.2790371,0.47356 -0.207185,0.11839 -0.295979,0.50317 -0.177587,0.73995 0.177587,0.41437 0.443968,0.44397 1.598285,0.20718 0.5623603,-0.11839 1.0359264,-0.17758 1.0655243,-0.14798 0.029598,0.0296 0.1479893,3.58134 0.1479893,5.4756 0.029598,0.82874 0.059196,0.97673 0.2071851,1.15432 z"
           style="font-style:normal;font-variant:normal;font-weight:normal;font-stretch:normal;font-size:29.59787941px;font-family:'KL Lovemug';-inkscape-font-specification:'KL Lovemug, Normal';font-variant-ligatures:normal;font-variant-caps:normal;font-variant-numeric:normal;font-feature-settings:normal;text-align:start;writing-mode:lr-tb;text-anchor:start;stroke-width:0.73994696"
           id="path19964" />
        <path
           d="m 1.6878965,260.2033 c 0.6807513,0.11839 1.5982855,-0.14799 2.1606452,-0.59196 0.4143703,-0.29598 1.0359258,-1.15432 1.1839152,-1.68708 0.5031639,-1.45029 0.3847724,-4.61727 -0.2663809,-6.62992 -0.4143703,-1.3911 -1.479894,-3.37416 -2.6342113,-4.91325 -1.18391516,-1.56869 -1.9830579,-3.37416 -2.19024306,-4.91325 -0.1479894,-1.09512 -0.35517455,-5.35722 -0.35517455,-7.34027 0,-2.63421 0.14798939,-3.61094 0.82874062,-4.91325 0.62155549,-1.18392 1.24311089,-1.71668 2.04225369,-1.71668 0.5031639,0 0.8879364,0.26638 1.1543173,0.79914 0.236783,0.47357 0.3551745,1.65749 0.3551745,3.58135 0.029598,1.68708 0.1479894,2.07185 0.7103491,2.07185 0.3551746,0 0.5919576,-0.29598 0.5919576,-0.71035 -0.029598,-1.92386 -0.1775872,-4.46928 -0.2959788,-4.85405 -0.236783,-0.88794 -0.8879363,-1.68708 -1.5982854,-1.98306 -0.4143704,-0.17759 -1.3911004,-0.17759 -1.983058,0.0296 -0.6807512,0.20718 -1.5390897,1.12472 -2.07185153,2.16064 -1.03592577,1.95346 -1.18391517,3.99572 -0.79914277,10.56645 0.1775873,3.13737 0.4143703,4.1733 1.21351308,5.71239 0.35517456,0.73994 0.53276183,1.00632 1.95346002,3.07818 1.243111,1.80547 1.9830579,3.58134 2.2494389,5.23882 0.2071851,1.27271 0.1775872,3.43336 -0.029598,4.1733 -0.4143703,1.30231 -1.5982855,1.95346 -2.6638092,1.4503 C 0.41518771,258.39783 0.11920892,257.68748 8.1739807e-4,255.70442 -0.11757412,253.72136 -0.20636776,252.89262 -0.41355291,252.68544 c -0.20718516,-0.20719 -0.59195759,-0.20719 -0.85833849,0 -0.2071852,0.17758 -0.2071852,0.17758 -0.088794,1.15431 0.059196,0.53277 0.1183916,1.4503 0.1183916,2.04226 0.059196,1.21351 0.29597876,2.21984 0.62155543,2.8118 0.11839152,0.17758 0.41437031,0.56236 0.68075123,0.79914 0.47356607,0.41437 0.91753426,0.62155 1.62788364,0.71035 z"
           style="font-style:normal;font-variant:normal;font-weight:normal;font-stretch:normal;font-size:29.59787941px;font-family:'KL Lovemug';-inkscape-font-specification:'KL Lovemug, Normal';font-variant-ligatures:normal;font-variant-caps:normal;font-variant-numeric:normal;font-feature-settings:normal;text-align:start;writing-mode:lr-tb;text-anchor:start;stroke-width:0.73994696"
           id="path19966" />
      </g>
    </g>
  </g>
</svg>
